<svg width="80" height="80" viewBox="0 0 80 80" fill="none" xmlns="http://www.w3.org/2000/svg">
<g filter="url(#filter0_d)">
<circle cx="40" cy="36" r="32" fill="#3B2075"/>
</g>
<path d="M40.0003 48.2008C46.7371 48.2008 52.1983 42.7395 52.1983 36.0027C52.1983 29.2659 46.7371 23.8047 40.0003 23.8047C33.2635 23.8047 27.8022 29.2659 27.8022 36.0027C27.8022 42.7395 33.2635 48.2008 40.0003 48.2008Z" fill="#28F46D"/>
<path d="M44.922 45.4009C45.166 43.5856 45.8692 42.7102 46.7231 41.9137C49.134 39.6535 49.7654 38.3763 48.7824 34.8245C48.2083 32.7365 51.2435 31.653 51.3655 31.61C50.0452 28.1945 47.2469 25.5253 43.7453 24.3916C40.4733 24.3988 40.8393 26.6375 41.4061 26.8384C43.6664 27.6348 42.3676 30.5839 41.4564 31.6961C40.6599 32.6648 39.9998 33.6191 40.8393 34.4227C42.2457 35.7645 42.26 38.2974 41.2411 39.4741C40.6384 40.1701 38.0696 41.5765 36.8785 40.9881C34.7187 39.9262 36.9933 37.4363 35.8668 37.1996C35.3717 37.0919 34.0586 36.3744 34.4317 34.8604C34.8838 33.0307 31.8343 35.3053 31.2674 36.7906C30.5355 38.7064 30.1481 41.6985 29 41.2464C30.2987 43.9587 32.5661 46.1257 35.3573 47.2737C34.2595 46.7356 33.5348 45.7095 34.4891 44.5973C34.7116 44.3318 34.9125 43.7865 36.857 43.5856C38.7943 43.3847 39.3181 44.1381 39.7271 45.2C40.3944 46.9149 38.2849 47.6612 37.022 47.6684C36.7207 47.6684 36.4121 47.6253 36.1036 47.5464C37.3306 47.9625 38.6365 48.1922 39.9998 48.1922C41.9873 48.1922 43.8601 47.7042 45.5176 46.8647C45.1301 46.6279 44.8144 46.1902 44.922 45.4009Z" fill="#228FF3"/>
<path d="M28.8569 42.4991C30.0193 42.9942 29.7855 39.7134 31.2675 36.79C31.8344 35.3119 34.8839 33.0301 34.4318 34.8598C34.0587 36.3667 35.3646 37.0914 35.8669 37.199C36.9934 37.443 34.7188 39.9256 36.8786 40.9876C38.0697 41.576 40.6457 40.1696 41.2412 39.4736C42.2601 38.2968 42.2529 35.7639 40.8394 34.4222C39.9999 33.6185 40.66 32.6642 41.4565 31.6955C42.3677 30.5905 43.6665 27.6343 41.4062 26.8378C40.8394 26.6369 40.8849 23.4634 44.1784 23.4634" stroke="black" stroke-width="2.5" stroke-miterlimit="10"/>
<path d="M51.3803 31.6025C51.3803 31.6025 48.1944 32.6932 48.7828 34.8243C49.7658 38.376 49.1344 39.6533 46.7235 41.9135C45.8696 42.7099 45.1593 43.5853 44.9225 45.4007C44.6857 47.216 46.7235 47.389 46.7235 47.389" stroke="black" stroke-width="2.5" stroke-miterlimit="10"/>
<path d="M33.9447 45.4021C34.1671 45.1367 34.3681 44.5913 36.3126 44.3904C38.2499 44.1895 38.7737 44.9429 39.1827 46.0049C39.85 47.7198 37.7405 48.466 36.4776 48.4732C34.7412 48.4804 32.5455 47.0381 33.9447 45.4021Z" stroke="black" stroke-width="2.5" stroke-miterlimit="10"/>
<path d="M40 49C47.1797 49 53 43.1797 53 36C53 28.8203 47.1797 23 40 23C32.8203 23 27 28.8203 27 36C27 43.1797 32.8203 49 40 49Z" stroke="black" stroke-width="3" stroke-miterlimit="10"/>
<path d="M26.5657 19.6365C26.6945 19.6204 27.1615 19.564 27.3387 19.9102C27.5158 20.2564 27.395 20.6187 27.0166 20.6348C26.6382 20.6509 26.3403 20.5624 26.2437 20.2081C26.1631 19.9827 26.2839 19.7331 26.5174 19.6525C26.5335 19.6445 26.5496 19.6365 26.5657 19.6365Z" fill="white"/>
<path d="M43.3633 11.6323C43.417 11.6212 43.6116 11.5823 43.6854 11.8214C43.7592 12.0605 43.7089 12.3107 43.5512 12.3218C43.3935 12.3329 43.2694 12.2718 43.2291 12.0271C43.1956 11.8714 43.2459 11.699 43.3432 11.6434C43.3499 11.6379 43.3566 11.6323 43.3633 11.6323Z" fill="white"/>
<path d="M38.6497 58.6397C38.8097 58.6197 39.3897 58.5497 39.6097 58.9797C39.8297 59.4097 39.6797 59.8597 39.2097 59.8797C38.7397 59.8997 38.3697 59.7897 38.2497 59.3497C38.1497 59.0697 38.2997 58.7597 38.5897 58.6597C38.6097 58.6497 38.6297 58.6397 38.6497 58.6397Z" fill="white"/>
<path d="M16.2891 40.0132C16.3965 39.9973 16.7857 39.9417 16.9333 40.2833C17.0809 40.6249 16.9802 40.9823 16.6649 40.9982C16.3495 41.0141 16.1013 40.9267 16.0208 40.5772C15.9537 40.3548 16.0543 40.1085 16.2489 40.0291C16.2623 40.0212 16.2757 40.0132 16.2891 40.0132Z" fill="white"/>
<path d="M23.2313 45.0106C23.3172 44.9979 23.6285 44.9534 23.7466 45.2266C23.8647 45.4999 23.7842 45.7859 23.5319 45.7986C23.2796 45.8113 23.081 45.7414 23.0166 45.4618C22.9629 45.2838 23.0434 45.0868 23.1991 45.0233C23.2098 45.0169 23.2206 45.0106 23.2313 45.0106Z" fill="white"/>
<path d="M56.3604 21.6285C56.413 21.6219 56.6037 21.5989 56.676 21.7403C56.7484 21.8817 56.6991 22.0296 56.5445 22.0362C56.39 22.0428 56.2684 22.0066 56.2289 21.8619C56.196 21.7699 56.2454 21.668 56.3407 21.6351C56.3473 21.6318 56.3539 21.6285 56.3604 21.6285Z" fill="white"/>
<path d="M58.3604 44.6285C58.413 44.6219 58.6037 44.5989 58.676 44.7403C58.7484 44.8817 58.6991 45.0296 58.5445 45.0362C58.39 45.0428 58.2684 45.0066 58.2289 44.8619C58.196 44.7699 58.2454 44.668 58.3407 44.6351C58.3473 44.6318 58.3539 44.6285 58.3604 44.6285Z" fill="white"/>
<path d="M64.3604 36.6285C64.413 36.6219 64.6037 36.5989 64.676 36.7403C64.7484 36.8817 64.6991 37.0296 64.5445 37.0362C64.39 37.0428 64.2684 37.0066 64.2289 36.8619C64.196 36.7699 64.2454 36.668 64.3407 36.6351C64.3473 36.6318 64.3539 36.6285 64.3604 36.6285Z" fill="white"/>
<path d="M54.3423 16.0132C54.4694 15.9973 54.9302 15.9417 55.1049 16.2833C55.2797 16.6249 55.1605 16.9823 54.7872 16.9982C54.4138 17.0141 54.1199 16.9267 54.0246 16.5772C53.9451 16.3548 54.0643 16.1085 54.2947 16.0291C54.3106 16.0212 54.3264 16.0132 54.3423 16.0132Z" fill="white"/>
<defs>
<filter id="filter0_d" x="0" y="0" width="80" height="80" filterUnits="userSpaceOnUse" color-interpolation-filters="sRGB">
<feFlood flood-opacity="0" result="BackgroundImageFix"/>
<feColorMatrix in="SourceAlpha" type="matrix" values="0 0 0 0 0 0 0 0 0 0 0 0 0 0 0 0 0 0 127 0" result="hardAlpha"/>
<feOffset dy="4"/>
<feGaussianBlur stdDeviation="4"/>
<feColorMatrix type="matrix" values="0 0 0 0 0 0 0 0 0 0 0 0 0 0 0 0 0 0 0.24 0"/>
<feBlend mode="normal" in2="BackgroundImageFix" result="effect1_dropShadow"/>
<feBlend mode="normal" in="SourceGraphic" in2="effect1_dropShadow" result="shape"/>
</filter>
</defs>
</svg>
