<svg width="100" height="100" viewBox="0 0 100 100" fill="none" xmlns="http://www.w3.org/2000/svg">
<path d="M58.5955 59.3663C56.1331 60.5379 51.2084 64.0478 47.515 66.3886C45.8498 67.4439 48.7461 68.7294 48.7461 72.2405C48.7461 75.7517 50.841 78.0749 53.6707 76.9221C62.2889 73.4109 62.4232 57.5451 58.5955 59.3663Z" fill="#FF5858" stroke="black" stroke-width="3.6" stroke-linejoin="round"/>
<path d="M42.6028 43.245C43.7029 45.446 37.1019 52.046 36.0018 56.4475C35.5681 58.1825 32.7013 53.147 30.501 52.0469C28.3007 50.9467 25 52.0476 25 48.7478C25 42.0544 40.4025 38.8428 42.6028 43.245Z" fill="#FF5858" stroke="black" stroke-width="3.6" stroke-linejoin="round"/>
<path d="M61.998 58.2232C57.9982 63.2229 47.2995 67.2227 43.999 67.2227C43.5959 63.2229 39.5003 60.5237 33.9995 57.2232C33.9995 53.9231 34.9995 48.2237 39.9992 40.2242C44.9989 32.2246 47.9988 32.2227 47.9988 32.2227C55.9983 34.2225 67.9977 43.0488 67.9977 46.2219C67.9977 47.2218 65.9978 53.2235 61.998 58.2232Z" fill="#E5E5E5" stroke="black" stroke-width="3.6" stroke-linecap="round" stroke-linejoin="round"/>
<path d="M45.9986 58.221L41.999 55.2212C35.9989 58.221 30.9996 68.8062 30.9996 70.2204C30.9996 71.2203 32.3996 72.2203 32.9995 72.2203C40.1991 70.6204 45.6653 61.8875 45.9986 58.221Z" fill="#FF5858" stroke="black" stroke-width="3.6" stroke-linejoin="round"/>
<path d="M67.9977 30.2231C66.2754 28.4976 56.9983 25.2226 45.8693 32.6707C58.1911 37.9502 65.0345 46.6355 66.8681 50.6699C71.9975 39.2218 69.3473 31.5752 67.9977 30.2231Z" fill="#9777FF" stroke="black" stroke-width="3.6" stroke-linecap="round" stroke-linejoin="round"/>
<path d="M51.9985 53.2211C54.7598 53.2211 56.9982 50.9827 56.9982 48.2214C56.9982 45.4601 54.7598 43.2217 51.9985 43.2217C49.2372 43.2217 46.9988 45.4601 46.9988 48.2214C46.9988 50.9827 49.2372 53.2211 51.9985 53.2211Z" fill="#55F5FF" stroke="black" stroke-width="3.6" stroke-linecap="round" stroke-linejoin="round"/>
</svg>
