<svg xmlns="http://www.w3.org/2000/svg" width="302.66" height="748" viewBox="0 0 302.66 748"><defs><style>.a{fill:#fff96c;}.a,.ab,.ad,.ae,.af,.b,.c,.d,.e,.f,.g,.h,.i,.j,.k,.l,.m,.n,.o,.p,.q,.r,.s,.z{stroke:#000;}.a,.ab,.ad,.b,.c,.d,.e,.g,.h,.i,.j,.k,.l,.m,.n,.o,.p,.q,.r,.s,.z{stroke-linecap:round;}.a,.b,.c,.d,.e,.g,.h,.m,.n,.o{stroke-miterlimit:10;}.a,.b,.c,.d,.e,.g,.h,.i,.j,.l,.m,.n,.o,.p,.q,.z{stroke-width:3px;}.b{fill:#1f451f;}.c{fill:#ff5858;}.d{fill:#2b2828;}.ab,.ad,.ae,.af,.e,.z{fill:none;}.ac,.f,.k,.l,.m,.v,.x,.y{fill:#fff;}.f{opacity:0.4;}.g,.t,.u{fill:#7757ff;}.h,.i{fill:#e5e5e5;}.i,.j,.k,.l,.p,.q,.r,.s{stroke-linejoin:round;}.j{fill:#60d4ff;}.ab,.af,.k,.r,.s{stroke-width:2.5px;}.o,.p,.s{fill:#9df483;}.q{fill:#c179ff;}.r{fill:#3b7c28;}.ac,.t{opacity:0.7;}.u{opacity:0.34;}.aa,.w{fill:#62ff74;}.x{opacity:0.8;}.aa,.y{opacity:0.5;}.ad,.ae{stroke-width:2px;}</style></defs><g transform="translate(-31.06 -35.5)"><ellipse class="a" cx="3.362" cy="3.729" rx="3.362" ry="3.729" transform="translate(291.583 500.833)"/><ellipse class="b" cx="3.362" cy="4.236" rx="3.362" ry="4.236" transform="translate(290.583 269.093)"/><path class="c" d="M249.233,621.521c9.342,12.919,26.021,9.465,41.438,40.035,9.679,19.194,13.641,30.493,20.042,60.525,1.219,5.72,5.5,6.252,9.7,6.234,6.019-.028,25.725-37.764,21.4-99.735-2.832-40.586-20.4-66.673-36.629-83.33C297.059,536.9,246.222,617.356,249.233,621.521Z" transform="translate(-10.245 -49.786)"/><path class="d" d="M117.687,636.393l11.476,42.722s14.749,12.162,58.032,12.162,58.033-12.162,58.033-12.162L256.7,636.393"/><rect class="e" width="213.5" height="220.785" transform="translate(80.446 295.054)"/><rect class="f" width="211.631" height="218.853" transform="translate(81.38 296.02)"/><path class="g" d="M193.871,131.7s-3.983-1.729-6.676-1.729-6.675,1.729-6.675,1.729S80.446,177.116,80.446,291.765c0,29.738,213.5,29.738,213.5,0C293.946,177.116,193.871,131.7,193.871,131.7Z"/><path class="h" d="M256.721,651.27c9.574-6.755,18.947-14.855,18.947-28.236l18.277-109.143v-18.85s-16.43,20.395-106.75,20.395S80.446,495.041,80.446,495.041v19.234L98.723,623.034c0,13.381,9.307,21.619,18.947,28.236C141.622,667.712,231.1,669.349,256.721,651.27Z"/><path class="c" d="M98.3,547.519c3.419,14.691,12.438,48.719,28.358,77.882a13.3,13.3,0,0,1-.891,14.182c-9.342,12.92-19.979,18.068-31.592,50.275-8.232,22.829-18.814,56.724-26.877,72.025-2.727,5.174-7.229,2.167-11.433,2.148C49.846,764,28.858,708.614,33.182,646.642c4.3-61.587,42.538-89.787,57.892-101.689A4.553,4.553,0,0,1,98.3,547.519Z"/><path class="c" d="M246.709,541.567c1.187-1.143,4.08-1.557,6.4-1.558,4.932,0,43.079,99.513,26.151,234.88-1.2,9.593-15.791,9.247-15.649.368.355-22.216-2.23-48.889-6.91-91.087-2.335-21.054-12.057-47.777-13.089-54.349C235.406,577.551,240.323,547.716,246.709,541.567Z"/><path class="e" d="M263.094,628.77s8.168,78.329.52,146.487"/><path class="i" d="M49.418,590.4s5.777,1.7,7.453,9.8,5.03,39.246,7.265,39.322,5.309-26.469,3.633-54.411-4.809-30.9-6.979-32.134c-2.008-1.143-6.734-2.934-12.881,1.047S44.36,600.48,44.36,600.48A46.007,46.007,0,0,1,49.418,590.4Z"/><path class="j" d="M48.517,547.451c.193-1.3,2.6-3.136,7.129-2.75s4.913,1.454,4.913,2.75.289,5.342,0,6.5S55.5,556.726,48.687,555.1A14.868,14.868,0,0,1,48.517,547.451Z"/><path class="k" d="M52.485,549.563a7.477,7.477,0,0,0,2.164.277"/><path class="l" d="M50.888,564.094a132.606,132.606,0,0,0,0,21.487"/><path class="e" d="M290.478,647.611c6.928,9.825,19.123,29.209,24.148,49.773a183.609,183.609,0,0,1,4.579,26.19" transform="translate(-10.245 -49.786)"/><ellipse class="a" cx="3.296" cy="4.074" rx="3.296" ry="4.074" transform="translate(77.15 276.98)"/><ellipse class="b" cx="4.017" cy="4.463" rx="4.017" ry="4.463" transform="translate(113.546 290.593)"/><ellipse class="b" cx="4.017" cy="4.463" rx="4.017" ry="4.463" transform="translate(221.606 294.727)"/><circle class="a" cx="4.236" cy="4.236" r="4.236" transform="translate(163.828 296.02)"/><ellipse class="a" cx="3.362" cy="4.236" rx="3.362" ry="4.236" transform="translate(274.954 286.356)"/><ellipse class="g" cx="3.296" cy="3.586" rx="3.296" ry="3.586" transform="translate(77.15 507.777)"/><ellipse class="a" cx="4.017" cy="3.929" rx="4.017" ry="3.929" transform="translate(113.546 519.76)"/><ellipse class="a" cx="4.017" cy="3.929" rx="4.017" ry="3.929" transform="translate(221.606 523.399)"/><ellipse class="g" cx="4.236" cy="3.729" rx="4.236" ry="3.729" transform="translate(163.828 524.538)"/><ellipse class="g" cx="3.362" cy="3.729" rx="3.362" ry="3.729" transform="translate(274.954 516.031)"/><path class="m" d="M152.532,515.553v22l9.961,125.443"/><path class="e" d="M106.579,577.337s15.94,12.3,49.766,13.434"/><path class="e" d="M271.172,591.421s-.3-3.213-2.66-29.892-8.631-32.586-11.385-33.766-17.824,3.676-17.824,3.676c-2.865,2.571-8.629,21.715-11.3,44.576-3.414,29.169-2.317,54.128-.015,84.606"/><path class="e" d="M159.775,628.77s33.463,7.933,66.054-1.647"/><path class="n" d="M84.534,252.93s37.655,14.491,102.662,14.491,102.66-14.49,102.66-14.49c-8.178-37.784-24.353-57.5-37.044-74.39-31.6,12.909-101.666,7.466-131.233,0C110.858,189.265,90.843,221.014,84.534,252.93Z"/><circle class="o" cx="7.779" cy="7.779" r="7.779" transform="translate(181.857 37)"/><path class="m" d="M193.02,44.51a2.19,2.19,0,0,1-.6,2.049"/><path class="e" d="M189.636,52.558s2.594,6.109.792,9.22.048,10.785-.078,13.98-2.588,39.319-3.155,54.209"/><path class="i" d="M222.32,178.193c1.561,4.351,5.227,14.8,6.332,19.957a2.115,2.115,0,0,0,2.132,1.678,124.592,124.592,0,0,0,14.433-1.71,2.114,2.114,0,0,0,1.7-2.624c-1.266-4.818-4.519-16.172-8.254-21.278a2.1,2.1,0,0,0-1.9-.84,92.464,92.464,0,0,0-13.034,2.068A2.112,2.112,0,0,0,222.32,178.193Z"/><path class="l" d="M230.9,180.02a1.86,1.86,0,0,0,.795,1.107c2.655,1.3,3.763-.261,3.763-.261"/><path class="p" d="M234.883,186.4c.773-.113,3.461-.412,4.514,1.594s.351,4.113-1.856,4.214-3.963-.4-4.489-2.508A2.555,2.555,0,0,1,234.883,186.4Z"/><path class="i" d="M155.392,178.193c-1.561,4.351-6.417,14.507-7.521,19.669a2.117,2.117,0,0,1-2.132,1.678,124.582,124.582,0,0,1-14.434-1.71,2.115,2.115,0,0,1-1.7-2.625c1.267-4.817,5.709-15.883,9.445-20.989a2.1,2.1,0,0,1,1.9-.84,92.487,92.487,0,0,1,13.034,2.068A2.111,2.111,0,0,1,155.392,178.193Z"/><path class="l" d="M145.9,179.448a1.718,1.718,0,0,1,0,2.082c-.836.956-2.637.576-2.637.576"/><path class="q" d="M143.223,186.386c-.754-.114-3.388-.415-4.717,1.6s-.923,4.131,1.26,4.233,4-.4,4.819-2.519S144.01,186.505,143.223,186.386Z"/><path class="l" d="M168.389,635.658a19.581,19.581,0,0,0,2.813.3"/><path class="l" d="M180.979,636.561s2.44.282,3.656.324"/><path class="l" d="M194.493,636.781s1.76.161,2.738.124"/><path class="l" d="M202.266,657.819s1.767.008,2.738-.115"/><path class="l" d="M207.623,636.062a10.027,10.027,0,0,0,1.883-.217"/><path class="l" d="M175.463,657.813a10.026,10.026,0,0,0,1.883-.217"/><path class="l" d="M214.46,656.059a8.578,8.578,0,0,0,2.153-.314"/><path class="l" d="M189.007,657.762a8.6,8.6,0,0,0,2.17.172"/><line class="l" x2="0.46" transform="translate(220.667 633.938)"/><line class="l" y2="1.114" transform="translate(221.988 642.033)"/><path class="l" d="M222.292,649.27s.1,1.317.1,1.722"/><path class="l" d="M166.339,641.621a6.179,6.179,0,0,0,0,2.008"/><path class="l" d="M167.313,651.662a8.228,8.228,0,0,0,0,2.85"/><path class="r" d="M141.341,569.818a26.167,26.167,0,0,1,3.876-.061,4.17,4.17,0,0,1,2.3,3.754c0,2.3-.181,5.026-1.937,5.753a7.618,7.618,0,0,1-4.239,0"/><path class="s" d="M139.888,569.827c1.022.1,3.854.492,4.471,4.7a3.908,3.908,0,0,1-4.009,4.841c-1-.07-4.172-1.028-3.854-5.894C136.669,570.822,138.582,569.7,139.888,569.827Z"/><path class="t" d="M157.769,192.218c1.18-.71-1.142,3.909-1.294,6.117-.117,1.7-1.73,4.468.425,8.239s1.954,3.772.438,5.927,11.12,4.839,7.766,8.616-4.971,6.47-2.277,8.356-6.97,5.119-8.738,8.351,4.7,5.119,2.272,7,5.578,6.3,12.531,7.184c4.606.587,39.307,4.616-.882,3.259-17.067-.577-24.9-1.705-38.471-3.53-13.475-1.812-17.951-4.023-20.735-9.739-2.8-5.755,7.316-22.767,11.677-28.155s6.283-10.237,10.171-10.237,14.245,3.1,18.256.944S154.26,194.328,157.769,192.218Z" transform="translate(-0.892 0.087)"/><path class="u" d="M125.7,206.574c-1.237,3.772-1.121,3.772-.251,5.927s-6.381,4.839-4.456,8.616,2.852,6.47,1.307,8.356,4,5.119,5.014,8.351-2.7,5.119-1.3,7-12.428,6.223-16.418,7.108c-2.643.587-13.328,4.692,9.733,3.335,9.793-.577,14.289-1.705,22.076-3.53,7.732-1.812,10.3-4.023,11.9-9.739,1.609-5.755-4.2-22.767-6.7-28.155s-9.06-21.224-11.291-21.224-2.719,14.086-5.021,11.931S126.941,202.8,125.7,206.574Z" transform="translate(108.207 5.331) rotate(-3)"/><ellipse class="v" cx="2" cy="1" rx="2" ry="1" transform="translate(185.387 40.858) rotate(-22)"/><ellipse class="w" cx="1.5" cy="1.25" rx="1.5" ry="1.25" transform="matrix(0.848, -0.53, 0.53, 0.848, 114.397, 292.182)"/><ellipse class="w" cx="1.5" cy="1.25" rx="1.5" ry="1.25" transform="matrix(0.848, -0.53, 0.53, 0.848, 222.195, 297.07)"/><ellipse class="x" cx="1.5" cy="1.25" rx="1.5" ry="1.25" transform="matrix(0.848, -0.53, 0.53, 0.848, 274.954, 288.473)"/><ellipse class="x" cx="1.5" cy="1.25" rx="1.5" ry="1.25" transform="matrix(0.848, -0.53, 0.53, 0.848, 164.195, 298.137)"/><ellipse class="x" cx="1.5" cy="1.25" rx="1.5" ry="1.25" transform="matrix(0.848, -0.53, 0.53, 0.848, 77.15, 278.934)"/><path class="y" d="M101.736,316.431s3.316,2.725,26.637,3.14c0,24.559-.321,20.691,0,31.112s-6.529,35.1-17.8,35.1-8.832-59.182-8.832-59.182Z" transform="translate(3.325 -0.658)"/><path class="z" d="M50.888,605.332a165.358,165.358,0,0,0-12.6,45.736"/><ellipse class="aa" cx="1.5" cy="1.25" rx="1.5" ry="1.25" transform="matrix(0.848, -0.53, 0.53, 0.848, 164.195, 526.148)"/><ellipse class="aa" cx="1.5" cy="1.25" rx="1.5" ry="1.25" transform="matrix(0.848, -0.53, 0.53, 0.848, 113.694, 521.35)"/><ellipse class="aa" cx="1.5" cy="1.25" rx="1.5" ry="1.25" transform="matrix(0.848, -0.53, 0.53, 0.848, 77.15, 509.243)"/><ellipse class="aa" cx="1.5" cy="1.25" rx="1.5" ry="1.25" transform="matrix(0.848, -0.53, 0.53, 0.848, 221.96, 525.208)"/><ellipse class="aa" cx="1.5" cy="1.25" rx="1.5" ry="1.25" transform="matrix(0.848, -0.53, 0.53, 0.848, 274.954, 518.208)"/><path class="ab" d="M240.91,664.223s-5.353,2.964-17.859,4.9" transform="translate(-1.063 1)"/><path class="ab" d="M241.271,664.88c-3.683,1.7-8.95,3.643-18.22,4.239" transform="translate(-6.151 7.192)"/><path class="ac" d="M101.618,316.431s1.568,1.363,12.594,1.57c0,12.28-.152,10.345,0,15.556s-3.087,17.548-8.418,17.548-4.176-29.591-4.176-29.591Z" transform="translate(6.532 3.342)"/><path class="z" d="M43.815,714.177s1.95,23.487,15.594,42.13" transform="translate(0.774 1.181)"/><path class="z" d="M883.876,237.053a68.932,68.932,0,0,0,16.145-2.549" transform="translate(-631.217 35)"/><path class="z" d="M883.875,236.553A39.772,39.772,0,0,0,894.8,234.5" transform="translate(-625.992 41)"/><path class="z" d="M894.8,236.553a39.772,39.772,0,0,1-10.92-2.049" transform="translate(-789.992 41)"/><path class="z" d="M889.335,236.4a11.956,11.956,0,0,1-5.46-1.9" transform="translate(-789.992 34)"/><path class="z" d="M883.875,236.766a55.286,55.286,0,0,0,13.594-2.261" transform="translate(-628.666 52)"/><path class="z" d="M831.3,109.868s7.312,3.336,10.177,7.809" transform="matrix(0.999, 0.035, -0.035, 0.999, -627.57, 5.399)"/><path class="z" d="M835.524,119.736s4.293,3.63,4.844,6.354" transform="matrix(0.999, 0.035, -0.035, 0.999, -627.57, 5.399)"/><path class="z" d="M723.874,483.663a51.384,51.384,0,0,0,15.571,6.366" transform="translate(-636.197 34)"/><path class="z" d="M788.3,501.274a32.322,32.322,0,0,1-8.364-1.28" transform="translate(-636.197 34)"/><path class="ab" d="M793.752,502.418s19.9,3.064,53.7-1.25" transform="translate(-636.197 34)"/><path class="z" d="M894.733,494.073a47.946,47.946,0,0,0,9.446-2.56" transform="translate(-636.197 34.63)"/><path class="ab" d="M931.925,630.111a70.123,70.123,0,0,1,8.656,6.227" transform="translate(-646.442 -15.786)"/><path class="ab" d="M931.925,630.111s5.72,3.459,8.52,8.123" transform="translate(-640.327 -3.049)"/><path class="ab" d="M936.2,635.009s3.484.79,7.3,8.736" transform="translate(-636.083 18.214)"/><path class="ab" d="M937.468,635.6a28.034,28.034,0,0,1,6.79,8.146" transform="translate(-636.083 23.214)"/><path class="z" d="M788.3,563.335s1.875,20.3,1.994,28.705" transform="translate(-638.19 33.96)"/><path class="z" d="M788.3,563.335s.992,9.986,1.055,14.119" transform="translate(-643.19 44.064)"/><path class="z" d="M861.516,519.164a314.551,314.551,0,0,0-4.976,35.449" transform="translate(-636.197 34)"/><g transform="translate(-0.197 3)"><path class="ad" d="M871.816,614.815c-.714.948-1.656,2.518-1.656,2.518" transform="translate(-634.759 30.386)"/><path class="ad" d="M869.741,615.119c1.067.709,2.55,1.9,2.55,1.9" transform="translate(-634.682 30.33)"/><path class="ae" d="M868.811,611.165a3.523,3.523,0,0,0-1.926,2.67,3.807,3.807,0,0,0,1.926,4.338c1.62.794,4.242.163,4.98-1.1a4.025,4.025,0,0,0,0-4.481C872.723,610.832,870.1,610.3,868.811,611.165Z" transform="translate(-634.385 31.759)"/></g><g transform="translate(-118.924 -15.241)"><path class="ab" d="M871.816,614.815c-.714.948-1.656,2.518-1.656,2.518" transform="translate(-634.543 31.409)"/><path class="ab" d="M869.741,615.119c1.067.709,2.55,1.9,2.55,1.9" transform="translate(-634.458 31.33)"/><path class="af" d="M868.926,611.269c-1.362,1.087-1.551,1.385-2.033,3.358a5.164,5.164,0,0,0,2.033,5.455c1.71,1,4.479.205,5.258-1.383a5.878,5.878,0,0,0,0-5.635C873.057,610.851,870.288,610.183,868.926,611.269Z" transform="translate(-634.385 31.759)"/></g><g transform="translate(-184.929 5.883)"><path class="ab" d="M871.816,614.815c-.714.948-1.656,2.518-1.656,2.518" transform="translate(-634.543 31.409)"/><path class="ab" d="M869.741,615.119c1.067.709,2.55,1.9,2.55,1.9" transform="translate(-634.458 31.33)"/><path class="af" d="M868.926,611.269c-1.362,1.087-1.551,1.385-2.033,3.358a5.164,5.164,0,0,0,2.033,5.455c1.71,1,4.479.205,5.258-1.383a5.878,5.878,0,0,0,0-5.635C873.057,610.851,870.288,610.183,868.926,611.269Z" transform="translate(-634.385 31.759)"/></g><path class="ae" d="M867.855,610.976a1.886,1.886,0,0,0-1.031,1.429,2.037,2.037,0,0,0,1.031,2.322,2.325,2.325,0,0,0,2.665-.589,2.154,2.154,0,0,0,0-2.4A2.1,2.1,0,0,0,867.855,610.976Z" transform="translate(-634.853 26.759)"/><path class="ae" d="M867.855,610.976a1.886,1.886,0,0,0-1.031,1.429,2.037,2.037,0,0,0,1.031,2.322,2.325,2.325,0,0,0,2.665-.589,2.154,2.154,0,0,0,0-2.4A2.1,2.1,0,0,0,867.855,610.976Z" transform="translate(-634.853 19.759)"/><path class="ab" d="M950.208,686.819s1.97,3.723,5.216,2.712" transform="translate(-646.442 -15.786)"/><path class="z" d="M894.24,575.378s-3.3-23.435-5.625-32.581" transform="translate(-635.704 32.021)"/><path class="z" d="M729.447,523.276s-12.955,10.332-18.795,17.541" transform="translate(-636.197 34)"/></g></svg>