<svg xmlns="http://www.w3.org/2000/svg" width="41.75" height="42.012" viewBox="0 0 41.75 42.012"><defs><style>.a{fill:#fcf664;}.a,.b,.c{stroke:#000;}.a,.b{stroke-width:3px;}.b,.c{fill:#fff;stroke-linecap:round;stroke-linejoin:bevel;}.c{stroke-width:3.002px;}</style></defs><g transform="translate(1.5 1.5)"><path class="a" d="M812.373,546.917a13.7,13.7,0,0,1-3.7,8.882c-1.671,2.818-4.656,7.316-7.544,8.946-2.8,1.58-4.929,1.51-8.4,1.51a28.67,28.67,0,0,1-13.027-3.37c-4.307-2.409-2.3-5.114-3.97-7.932-1.62-2.729-2.109-6.732-2.109-10.114s2.962-4.652,4.582-7.383c1.671-2.817,2.238-4.789,5.126-6.42,2.8-1.58,5.931-3.793,9.4-3.793a21.146,21.146,0,0,1,9.881,2.98c2.888,1.63,4.788,4.417,6.46,7.234C810.694,540.19,812.373,543.536,812.373,546.917Z" transform="translate(-773.623 -527.243)"/><path class="b" d="M806.826,544.531s-.409-2.5-1.615-3.357" transform="translate(-773.623 -527.243)"/><path class="b" d="M799.211,542.76s-.942,2.125-1.309,2.248" transform="translate(-773.623 -527.243)"/><path class="b" d="M781.7,541.268a3.77,3.77,0,0,0-1.252,2.684" transform="translate(-773.623 -527.243)"/><path class="c" d="M783.178,559.765a4.17,4.17,0,0,0,1.185,1.186" transform="translate(-773.623 -527.243)"/><path class="b" d="M785.1,537.364a5.5,5.5,0,0,0-.821.71" transform="translate(-773.623 -527.243)"/></g></svg>