<svg xmlns="http://www.w3.org/2000/svg" width="41.179" height="43.142" viewBox="0 0 41.179 43.142"><defs><style>.a{fill:#60d4ff;}.a,.b{stroke:#000;stroke-width:3px;}.b{fill:#fff;stroke-linecap:round;stroke-linejoin:bevel;}</style></defs><g transform="translate(1.512 1.622)"><path class="a" d="M910.153,534.193a22.975,22.975,0,0,1,5.293,9.5c.861,3.224-1.257,5.717-1.611,9.69-.835,3.125-1.68,6.689-4.683,8.693s-3.434,2.893-6.558,3.729c-3.223.861-8.386,1.393-11.61.533-3.125-.835-6.643-3.587-9.094-6.038s-2.87-5.243-3.7-8.37a18.46,18.46,0,0,1-.209-9.676c.834-3.126,3.255-5.61,5.708-8.063s3.4-6.018,6.524-6.852c3.224-.861,8.552-.491,11.775.367C905.107,528.54,907.7,531.741,910.153,534.193Z" transform="translate(-877.433 -526.852)"/><path class="b" d="M886.256,555.13a6.413,6.413,0,0,1-1.172-3.7" transform="translate(-877.433 -526.852)"/><path class="b" d="M889.688,537.091a6.441,6.441,0,0,0,1.159-2.078" transform="translate(-877.433 -526.852)"/><path class="b" d="M889.918,552.762a1.5,1.5,0,0,0,1.069.371" transform="translate(-877.433 -526.852)"/><path class="b" d="M906.277,555.58a1.5,1.5,0,0,0-.715.877" transform="translate(-877.433 -526.852)"/><path class="b" d="M905.584,538.722a5.4,5.4,0,0,0-1.421-1.62" transform="translate(-877.433 -526.852)"/></g></svg>