<svg xmlns="http://www.w3.org/2000/svg" width="40.4" height="43" viewBox="0 0 40.4 43"><defs><style>.a{fill:#ff5858;}.a,.b{stroke:#000;stroke-width:3px;}.b{fill:#fff;stroke-linecap:round;stroke-linejoin:bevel;}</style></defs><g transform="translate(1.5 1.5)"><path class="a" d="M761.016,547.416c0,3.467.145,6.9-1.475,9.7a21.1,21.1,0,0,1-16.808,10.126c-3.467,0-6.442-2.2-9.242-3.821-2.888-1.671-6.316-3.173-7.987-6.061-1.62-2.8-1.832-6.481-1.832-9.948a21.563,21.563,0,0,1,9.662-16.28c2.8-1.62,5.931-3.89,9.4-3.89a21.719,21.719,0,0,1,17.178,10.252C761.532,540.3,761.016,543.944,761.016,547.416Z" transform="translate(-723.672 -527.242)"/><path class="b" d="M753.332,540.341s-1.493,3.583-3.673,4.05" transform="translate(-723.672 -527.242)"/><path class="b" d="M755.211,547.416s-.942,2.125-1.309,2.248" transform="translate(-723.672 -527.242)"/><path class="b" d="M732.4,540.992s-.244,2.688.733,3.543" transform="translate(-723.672 -527.242)"/><path class="b" d="M735.085,555.04s2.322-.6,1.955-1.036" transform="translate(-723.672 -527.242)"/></g></svg>