<svg xmlns="http://www.w3.org/2000/svg" width="41.119" height="42.213" viewBox="0 0 41.119 42.213"><defs><style>.a{fill:#9df483;}.a,.b{stroke:#000;stroke-width:3px;}.b{fill:#fff;stroke-linecap:round;stroke-linejoin:bevel;}</style></defs><g transform="translate(1.566 1.511)"><path class="a" d="M853.679,534.191c2.451,2.451,4.981,4.776,5.816,7.9a21.1,21.1,0,0,1-4.725,19.045c-2.452,2.451-6.111,3-9.237,3.833-3.224.86-6.71,2.222-9.934,1.362-3.125-.834-5.878-3.287-8.329-5.739a21.564,21.564,0,0,1-4.68-18.344c.834-3.125,3.256-5.61,5.708-8.062s4.21-5.326,7.335-6.16a20.661,20.661,0,0,1,10.253-.071C849.01,528.792,851.224,531.736,853.679,534.191Z" transform="translate(-822.14 -527.346)"/><path class="b" d="M836.888,558.419s-3.8-.782-4.677-2.833" transform="translate(-822.14 -527.346)"/><path class="b" d="M854.4,550.416s-2.872,3.986-3.99,4.215" transform="translate(-822.14 -527.346)"/><path class="b" d="M831.449,541.1s-1.706,2.092-1.374,3.347" transform="translate(-822.14 -527.346)"/><path class="b" d="M849.409,548.483s2.322-.6,1.955-1.036" transform="translate(-822.14 -527.346)"/></g></svg>