<svg xmlns="http://www.w3.org/2000/svg" xmlns:xlink="http://www.w3.org/1999/xlink" width="375" height="812" viewBox="0 0 375 812"><defs><style>.a,.aa,.o{fill:#fff;}.a{stroke:#707070;}.b{clip-path:url(#a);}.c,.j,.k,.l,.m,.n,.p,.q,.r{isolation:isolate;}.c{fill:url(#b);}.d{fill:#ff9af7;}.aa,.d,.f,.g,.s,.t,.u,.v,.w,.x,.y,.z{stroke:#2a2439;}.aa,.ab,.ac,.ad,.ae,.d,.f,.g,.t,.u{stroke-linecap:round;}.d,.f,.g{stroke-miterlimit:10;}.aa,.d,.f,.g,.t,.u,.w,.y,.z{stroke-width:3px;}.e{fill:#d26fc9;}.f,.i,.u,.x,.y{fill:none;}.g{fill:#f683ff;}.h{opacity:0.2;}.j{fill:#1b95c8;}.k{fill:#11d4ce;}.l{fill:#809ff1;}.m{fill:#4d3686;}.n{fill:#be50ed;}.p{fill:#826aca;}.q{fill:#20498b;}.r{fill:#67e0fd;}.s,.t{fill:url(#c);}.ab,.ac,.ad,.ae,.t,.u{stroke-linejoin:round;}.v,.w{fill:url(#e);}.w,.y{stroke-linecap:square;}.aa,.w,.y{stroke-linejoin:bevel;}.z{fill:#85a4d6;}.ab{fill:#7cffcd;}.ab,.ac,.ad,.ae{opacity:0.9;}.ac{fill:#ffcd7c;}.ad{fill:#ff7c7c;}.ae{fill:#eeffa7;}.af,.ag{stroke:none;}.ag{fill:#2a2439;}</style><clipPath id="a"><rect class="a" width="375" height="812"/></clipPath><radialGradient id="b" cx="0.5" cy="0.5" r="0.698" gradientTransform="translate(0 0.07) scale(1 0.86)" gradientUnits="objectBoundingBox"><stop offset="0" stop-color="#35bbed"/><stop offset="0.576" stop-color="#424ac7"/><stop offset="1" stop-color="#252867"/></radialGradient><radialGradient id="c" cx="0.409" cy="0.285" r="0.767" gradientTransform="translate(0.325 -0.245) rotate(33.94)" gradientUnits="objectBoundingBox"><stop offset="0" stop-color="#f2ee8d"/><stop offset="1" stop-color="#ff7979"/></radialGradient><radialGradient id="e" cx="0.393" cy="0.127" r="1.641" gradientTransform="matrix(-0.95, 0.311, -0.19, -0.579, 0.79, 0.078)" gradientUnits="objectBoundingBox"><stop offset="0" stop-color="#80ff6f"/><stop offset="1" stop-color="#b355d0"/></radialGradient></defs><g class="b"><rect class="c" width="375" height="812"/><g transform="translate(1.197 13.238)"><path class="d" d="M1.318,617.56s7.3-2.934,14.044-1.222,7.864-.583,10.673-.536,12.358,1.71,15.728.879,8.427.3,11.8-.88,7.022-2.4,14.886-1.419,12.92,1.844,21.627,1.411,18.258-3.368,22.47-3.123,12.92,3.423,21.346,3.423,35.671-1.236,51.4-.985,40.165.482,51.4,0,13.482-1.46,16.01-1.46,13.763-.49,16.29,0a143.4,143.4,0,0,0,14.887,1.46c5.336.252,23.874,1.46,35.39,0s21.908-3.66,24.717-3.66,9.269.733,15.449.489,5.617-1.467,8.707-1.956a55.029,55.029,0,0,1,9.269,0V798.762H0Z" transform="translate(-2.402 0)"/><path class="e" d="M687.712,732.229c-3.678,3.492,6.129,4.336,14.851,3.045s28.365-13.677,32.73-17.748,15.244-14.178,18.61-13.935,15.347-5.771,21.1-5.765,7.144,2.881,12.038,2.875,16.136,6.577,19.242,6.571,24.9,1.286,36.113,0a111.688,111.688,0,0,1,22.371,0S876.19,718.659,878.8,724.6s7.251,11.093,8.567,13.27,7.4,9.815,15.826,10.172,6.963-3.954,6.963-3.954-21.374-41.939-22.789-46.26,16.937-10.509,18.219-25.409c11.522-12.881,46.773-22.8,46.912-25.7s-12.077-6.27-14.855-6.505-36.292,12.518-39.652,12.437-19.421-8.347-33.223-8.567-51-12.144-95.05-3.869-36.921,28.859-36.892,30.25-1.983,5.639,2.464,6.256,6.514-5.23,10.961-1.763a31.2,31.2,0,0,0,7.649,4.619s-2.871,8.2-7.649,10.636-31.053,21.649-35.527,24.006S691.39,728.737,687.712,732.229Z" transform="translate(-636.197 17.762)"/><path class="f" d="M209.548,810.384a15.66,15.66,0,0,1,8.872-2.945c5.738-.287,6.525-3.243,8.614-5.31s4.447-9.752,15.141-10.329,40.957-5.857,68.6-1.384,26.332,7.748,29.46,9.219,5.469,5.318,9.379,7.1,14.858,6.525,14.074,7.411" transform="translate(0 -26.72)"/><path class="f" d="M248.137,801.283s13.794,6.1,59.2,3.375" transform="translate(0 -26.72)"/><path class="f" d="M150.1,737.412c2.783,1.546,11.412-4.331,12.511-4.021s10.378.309,8.522-2.166-5.319-3.727-8.522-4.338c-4.917-.937-14.006-2.393-19.749-6.221s-17.4-7.179-20.9-9.093-13.556-10.529-18.82-10.05-38,18.762-45.466,20.446-19.733,4.556-23.891,6.47-12.294,5.265-11.815,6.222" transform="translate(4 -9)"/><path class="f" d="M106.18,708.336c.618.928,4.021,5.877,4.021,8.661s2.784,7.408,2.474,9.89,1.856,6.5,1.856,6.5,3.093,4.021,4.949,4.021" transform="translate(4 -9)"/><path class="f" d="M161.1,740.44c.9-1-.406-3.633-4.106-3.566s-6.27-3.534-12.677-3.483-11.748,3.281-15.247,4.9-4.307,3.5,0,4.576,16.149.269,22.071,0S157.618,744.328,161.1,740.44Z" transform="translate(4 -9)"/><path class="f" d="M61.638,729.06s-3.4,2.784-4.33,4.331" transform="translate(24 -9)"/><path class="f" d="M73.416,729.988s-7.447,4.64-7.447,5.877" transform="translate(24 -9)"/><path class="f" d="M323.341,756.688c2.521-.84,4.621-3.361,7.141-4.2s25.2-1.26,34.445,0,6.721,5.009,10.081,5.655"/><path class="f" d="M332.431,754.917s-.988,1.994,3.949,2.388,20.735-1.006,26.067-1.194"/><path class="f" d="M-1.2,636.91s11.852.128,15.238,2.032,7.45,8.676,7.45,8.676-3.725,2.964-11.175,2.668a45.456,45.456,0,0,0-11.513.706Z"/><path class="f" d="M357.241,620.707s-6.038,5.1-6.038,6.416,8.832-.208,11.592,0S364.384,620.707,357.241,620.707Z"/><path class="f" d="M141.341,825.482c-18.185-8.046-55.066-16.115-60.675-16.732s-19.04-8.17-23.358-9.9-13.6-9.843-20.224-10.22-16.44-3.978-22.756,0S7.051,795.906.153,801.388" transform="translate(0 -26.72)"/><path class="f" d="M43.815,798.237s5.014,4.551,7.2,7.122" transform="translate(0 -26.72)"/><path class="f" d="M43.815,805.359a13.079,13.079,0,0,1,2.769,2.9" transform="translate(0 -26.72)"/><line class="g" x2="1.071" y2="2.332" transform="translate(32.6 788.204)"/><path class="f" d="M313.6,796.936a4.316,4.316,0,0,1,.935,2.546" transform="translate(0 -26.72)"/><path class="f" d="M318.9,797.663a3.273,3.273,0,0,1,.936,1.819" transform="translate(0 -26.72)"/><path class="f" d="M330.455,799.482a1.233,1.233,0,0,1-1,1.274" transform="translate(0 -26.72)"/><path class="f" d="M249.026,795.939c-.24.08-3.755.24-4.633,1.119" transform="translate(0 -26.72)"/><path class="f" d="M117.687,726.31s.612-.252,1.793.744" transform="translate(4 -9)"/></g><g class="h" transform="translate(-41.49 31.533)"><path class="i" d="M513.021,561.029c57.324,52.354,68.112,56.8,70.06,56.927-.132-1.953-4.6-12.788-57.287-70.451-3.324,3.855-6.775,7.589-10.287,11.1C514.687,559.427,513.853,560.227,513.021,561.029Z" transform="translate(-64.82 -63.699)"/><path class="i" d="M187.274,208.676c-61.5-56.479-72.845-61.192-74.858-61.324.132,2.006,4.818,13.3,60.945,74.446.868-.9,1.742-1.8,2.612-2.667C179.538,215.568,183.339,212.06,187.274,208.676Z" transform="translate(-11.829 -10.768)"/><g transform="translate(25.681 68.6)"><path class="j" d="M168.68,447.873c-30.847-36.817-41.965-77.257-45.325-92.994a200.075,200.075,0,0,0,226.909,232.74C300.717,569.348,207.958,494.752,168.68,447.873Z" transform="translate(-38.553 -106.82)"/><path class="k" d="M203.754,294.194c-12.745-14.129-24.8-27.492-36.629-40.293q-5.672,7.289-10.57,14.941c.251.656.528,1.349.844,2.1,6.544,15.469,27.2,50.147,66.665,87.729,18.493,17.61,38.294,37.448,57.443,56.632,35.238,35.3,68.521,68.641,82.736,76.844,8.652,4.992,21.725,14.1,34.366,22.909,15.154,10.56,35.656,24.84,40.278,25.488a1.814,1.814,0,0,0,.5.017q2.34-1.637,4.647-3.342c-41.651-38.469-87.986-84.147-144.63-140.791C264.348,361.364,233.545,327.217,203.754,294.194Z" transform="translate(-43.349 -93.463)"/><path class="l" d="M394.843,519.943c-12.6-8.776-25.62-17.852-34.175-22.787-14.521-8.378-47.925-41.842-83.291-77.27-19.138-19.172-38.927-39-57.395-56.585-45.546-43.377-63.254-79.522-67.4-89a198.59,198.59,0,0,0-12.976,24.691c.133.4.37,1.1.724,2.063a184.682,184.682,0,0,0,9.651,21.374c7.077,13.584,19.857,34.922,40.549,59.436,18.758,22.223,42.616,47.988,65.455,70.688,21.546,21.414,38.457,36.3,44.136,38.844,4.859,2.179,20.645,13.192,38.923,25.944,24.353,16.99,56.882,39.684,67.292,43.62.247.094.48.174.7.246l-.4-.389a199.2,199.2,0,0,0,27.648-15.593C428.559,543.073,417.159,535.493,394.843,519.943Z" transform="translate(-41.108 -96.161)"/><path class="m" d="M297.157,498.149c-13.143-5.892-72.029-64.621-110.54-110.247-33.136-39.258-46.69-71.039-50.423-80.981a198.582,198.582,0,0,0-10.769,34.514c.023.161.114.785.3,1.833,1.7,9.715,11.218,55.409,45.685,96.547,38.738,46.235,129.685,119.545,179.171,138.474.863.33,1.716.647,2.553.944a1.331,1.331,0,0,1,.848,1.565,198.656,198.656,0,0,0,47.233-14.063c-11.28-5.257-34.941-21.524-65.566-42.889C317.475,511.17,301.785,500.223,297.157,498.149Z" transform="translate(-39.231 -100.476)"/><path class="n" d="M555.332,578.639c-21.528-27.253-52.76-63.285-88.04-101.576-.056.072-.118.147-.174.218q-.871,1.1-1.781,2.223l-.33.4q-.8.976-1.623,1.961c-.084.1-.164.2-.248.3,63.037,68.962,59.311,72.685,57.518,74.477s-5.506,5.49-73.967-57.051h0l-.921-.842c-23.555-21.541-51.38-47.885-81.5-77.131q-3.012-2.925-6.054-5.888-6.953-6.772-14.05-13.729c-14.8-14.514-30.032-29.594-45.47-45.032-52.728-52.728-101.649-103.4-137.752-142.686l-.844-.919h0C93.357,140.683,97.315,136.7,99.014,135s5.687-5.688,78.887,61.559c.1-.089.21-.173.315-.261q.98-.819,1.953-1.612c.125-.1.251-.207.376-.308q1.121-.91,2.225-1.778l.223-.179C84.242,101.112,38.578,69,28.9,69a3.293,3.293,0,0,0-.6.05.88.88,0,0,0-.74.456c-8.914,17.477,23.589,51.676,77.438,108.337,13.434,14.136,28.628,30.126,44.709,47.486.355.384.7.758,1.061,1.144,12.178,13.161,24.582,26.911,37.715,41.468q5.567,6.171,11.187,12.395c10.295,11.391,20.762,22.913,31.517,34.552,16.744,18.119,34.2,36.524,52.858,55.186,56.78,56.78,103.2,102.535,144.9,141.041l.829.766.167.154,1,.921c13.738,12.683,26.539,24.714,37.863,35.361,59.234,55.684,91.875,86.352,117.619,79.677a.4.4,0,0,0,.344-.336C587.228,626.085,586.334,617.885,555.332,578.639ZM117.622,181.687a1.335,1.335,0,0,1-1.886.085c-9.826-8.971-16.471-24-16.75-24.631a1.335,1.335,0,1,1,2.447-1.071c.066.15,6.7,15.147,16.1,23.73A1.335,1.335,0,0,1,117.622,181.687ZM548.1,592.456a1.349,1.349,0,0,1-.22.018,1.335,1.335,0,0,1-1.315-1.117,75.308,75.308,0,0,0-4.025-14.488,1.336,1.336,0,0,1,2.47-1.02,76.7,76.7,0,0,1,4.19,15.07A1.335,1.335,0,0,1,548.1,592.456Zm18.946,15.711a1.334,1.334,0,0,1-1.757-.692c-6.136-14.113-12.1-21.721-12.165-21.8a1.335,1.335,0,0,1,2.092-1.66c.252.317,6.233,7.927,12.523,22.392A1.336,1.336,0,0,1,567.049,608.167Z" transform="translate(-26.092 -69.005)"/><path class="o" d="M510,388.925c1.576,1.2,3.187,2.587,4.893,4.052,5.817,5,12.41,10.662,20.443,11.472,3.431.342,5.728-.226,6.471-1.61.933-1.739,0-5.945-5.4-12.533-5.953-7.26-14.018-10.406-20.5-12.933-2.163-.844-4.2-1.641-5.984-2.51-5.459-2.669-8.86-3.488-10.817-3.488-1.229,0-1.888.323-2.13.714C495.768,374.056,499.616,381,510,388.925Z" transform="translate(-88.351 -109.002)"/><path class="p" d="M341.836,229.206c9.554,18.652,30.965,44.9,61.921,75.9,28.986,29.031,59.6,58.894,87.324,77.055,28.524,18.689,44.088,21.868,50.308,22.242A200.678,200.678,0,0,0,545,352.662c-.214-3.567-.534-7.116-.936-10.65-23.181-13.766-34.527-23.685-46.526-34.18-5.15-4.5-10.475-9.162-16.994-14.378-22.9-18.32-60.1-58.1-74.485-77.821-13.152-18.023-26.637-39.807-28.156-48.213a199.793,199.793,0,0,0-67.612.449c1.273,6.866,11.167,24.5,19.96,40.173C334.633,215.848,338.769,223.22,341.836,229.206ZM470.045,343.355c1.348-2.187,5.287-3.651,16.391,1.778,1.679.821,3.672,1.6,5.781,2.421,6.77,2.64,15.2,5.927,21.593,13.727,3.859,4.707,7.979,11.214,5.687,15.489-1.112,2.075-3.449,3.119-6.96,3.119a21.206,21.206,0,0,1-2.133-.114c-8.868-.894-15.8-6.849-21.915-12.1-1.676-1.44-3.258-2.8-4.772-3.954C473.211,355.706,467.589,347.332,470.045,343.355Z" transform="translate(-63.685 -81.672)"/><path class="o" d="M370.553,335.387c6.263,8.2,14.842,19.437,23.2,22.223,3.19,1.063,5.433,1.128,6.15.174,1-1.335.184-5.79-5.435-13.949-8.61-12.5-19.338-19.816-26.151-21.52a6.981,6.981,0,0,0-1.677-.216,3.112,3.112,0,0,0-2.721,1.13c-.859,1.363.06,3.912,2.459,6.816C367.614,331.538,369.041,333.407,370.553,335.387Z" transform="translate(-70.737 -102.484)"/><path class="q" d="M286.2,319.123c26.443,26.767,66.241,56.508,98.219,80.4,13.375,9.994,25.693,17.9,36.561,24.867,9.367,6.008,17.456,11.2,24.281,16.457,17.767,13.7,34.062,17.7,44.6,18.657a55.713,55.713,0,0,0,18.3-1.084A199.444,199.444,0,0,0,526.642,407.6c-16.71-1.127-41.228-16.1-51.226-22.653-27.932-18.3-58.665-48.272-87.749-77.4-31.149-31.2-52.73-57.677-62.407-76.573-3.044-5.941-7.168-13.292-11.535-21.074-9.25-16.485-18.788-33.487-20.245-41A199.692,199.692,0,0,0,259.2,178.7c-.093,3.87.158,20.59,10.341,35.565,2.357,3.465,57.717,84.977,59.331,96.269.534,3.738-.9,5.247-2.2,5.855a4.793,4.793,0,0,1-2.051.418c-5.87,0-15.845-8.057-23.412-16.437-2.031-2.247-5.032-5.232-8.832-9.008-19.637-19.516-60.086-59.723-62.015-98.782a198.453,198.453,0,0,0-21.094,14.205q-.872.673-1.757,1.374c-1.5,1.188-3.028,2.437-4.562,3.724C206.782,218.951,232.779,265.047,286.2,319.123Zm54.212-17.584c1.293-2.05,4.159-2.869,7.305-2.081,8.771,2.194,19.9,11.274,27.7,22.6,3.971,5.764,8.124,13.405,5.37,17.069a4.813,4.813,0,0,1-4.106,1.727,16.3,16.3,0,0,1-5.024-.974c-9.139-3.046-18.005-14.658-24.479-23.136-1.5-1.958-2.909-3.808-4.109-5.261C338.664,306.147,339.513,302.963,340.411,301.54Z" transform="translate(-49.486 -82.218)"/><path class="o" d="M298.835,291.123c3.828,3.8,6.853,6.81,8.931,9.114,10.706,11.855,19.852,16.557,22.348,15.388.869-.407.853-1.888.686-3.059-.534-3.739-13.53-28.435-58.893-95.143-9.945-14.625-10.852-30.411-10.828-36.006a198.947,198.947,0,0,0-23.522,11.313C238.512,231.164,279.2,271.613,298.835,291.123Z" transform="translate(-54.064 -83.875)"/><path class="r" d="M492.955,291.849c6.564,5.251,11.912,9.929,17.085,14.452,12.1,10.582,22.606,19.77,44.365,32.841a199.529,199.529,0,0,0-28.543-79.712,3.573,3.573,0,0,1-1.563.817,4.6,4.6,0,0,1-1.11.125c-5.33,0-16.279-7.285-32.593-21.7-14.386-12.708-27.555-26.341-31.509-31.684-6.822-9.222-6.491-14.186-5.55-16.445a199.509,199.509,0,0,0-62.06-22.167c1.988,7.584,13.434,26.911,27.482,46.16C433.251,234.126,470.2,273.647,492.955,291.849Z" transform="translate(-74.424 -82.15)"/><path class="o" d="M533.455,261.239a.876.876,0,0,0,.676-.608,199.988,199.988,0,0,0-68.423-65.148c-.477,1.618-.515,5.616,5.32,13.5C479.831,220.886,524.877,263.364,533.455,261.239Z" transform="translate(-84.217 -85.735)"/><path class="k" d="M441.221,449.792c-6.733-5.191-14.777-10.351-24.091-16.325-10.906-7-23.267-14.925-36.719-24.977-32.049-23.95-71.937-53.755-98.521-80.667-52.494-53.139-78.668-98.672-83.427-107.345-3.842,3.308-7.554,6.734-11.035,10.215-.9.9-1.8,1.817-2.692,2.745h0l1.483,1.61,1.446,1.569c.676.732,1.361,1.473,2.045,2.213l1.441,1.558,2.109,2.273c.479.515.955,1.029,1.439,1.548.731.786,1.47,1.58,2.209,2.373l1.407,1.509,2.351,2.516,1.322,1.414c.813.869,1.636,1.745,2.459,2.622l1.3,1.386,2.584,2.747c.41.434.815.866,1.226,1.3l2.592,2.747,1.327,1.406,2.636,2.785,1.295,1.368q1.394,1.471,2.806,2.956c.4.417.789.831,1.187,1.25q1.437,1.512,2.892,3.04l1.186,1.245q1.489,1.563,3,3.141l1.11,1.162,3,3.139,1.209,1.263q1.436,1.5,2.888,3.009l1.368,1.426q1.419,1.477,2.854,2.968l1.44,1.5q1.494,1.553,3,3.117l1.305,1.353q1.61,1.667,3.236,3.348l1.133,1.172,3.24,3.343,1.214,1.253,3.135,3.228,1.355,1.4q1.646,1.693,3.307,3.4l1.192,1.224q1.661,1.7,3.336,3.419L269.046,322q1.617,1.656,3.247,3.321l1.368,1.4,3.021,3.081,1.649,1.683L281.3,334.5,283,336.242l3.132,3.181c.524.533,1.046,1.064,1.571,1.6l2.891,2.931,1.889,1.915,2.914,2.948,1.841,1.862q1.421,1.437,2.851,2.878l1.981,2,3.257,3.281,1.547,1.559q1.721,1.73,3.449,3.466l1.432,1.44q1.408,1.415,2.824,2.833l2.079,2.085q2.443,2.448,4.9,4.9,5.122,5.122,10.211,10.188l2.081,2.07,3.007,2.991,1.927,1.912,3.139,3.117,2.112,2.091,2.907,2.879,2.353,2.326q1.334,1.318,2.667,2.634c.734.725,1.464,1.444,2.2,2.166l2.8,2.761,2.22,2.184c.909.895,1.82,1.792,2.726,2.682l2.4,2.352,2.522,2.476c.854.837,1.7,1.669,2.555,2.5.778.763,1.558,1.528,2.335,2.287l2.434,2.379,2.453,2.4,2.284,2.227,2.549,2.484c.742.723,1.479,1.439,2.218,2.157.862.838,1.725,1.679,2.584,2.513.712.692,1.419,1.377,2.129,2.066L391,443.521l2.183,2.113,2.505,2.424,2.217,2.14,2.483,2.4,2.057,1.982,2.585,2.488,1.955,1.878,2.648,2.544,1.859,1.78,2.685,2.571c.61.584,1.214,1.16,1.821,1.741l2.68,2.559c.594.567,1.184,1.126,1.774,1.69q1.337,1.273,2.667,2.54l1.711,1.625,2.706,2.569,1.6,1.512c.914.865,1.828,1.732,2.735,2.588l1.611,1.521c.895.845,1.789,1.69,2.677,2.526.513.484,1.021.961,1.532,1.442.906.853,1.812,1.706,2.71,2.549l1.445,1.355c.911.855,1.821,1.709,2.723,2.554l1.412,1.32,2.709,2.531,1.3,1.209,2.77,2.578,1.221,1.133q1.377,1.279,2.743,2.545l1.237,1.145c.9.832,1.8,1.663,2.686,2.483l1.158,1.066q1.36,1.253,2.707,2.491l1.063.975c.687.631,1.379,1.267,2.059,1.889h0q1.29-1.244,2.563-2.515c3.8-3.8,7.528-7.849,11.1-12.044l.036-.041h0c1.547-1.821,3.034-3.631,4.437-5.4q.7-.884,1.375-1.754a198.554,198.554,0,0,0,16.946-25.849,56.9,56.9,0,0,1-10.759.967C481.187,469.339,462.22,465.978,441.221,449.792Z" transform="translate(-47.077 -89.041)"/></g><g transform="translate(22.988 65.946)"><path d="M557.017,576.579c-21.631-27.384-53.032-63.6-88.483-102.066a201.216,201.216,0,0,0,17.879-27.876l.082-.154a202.107,202.107,0,0,0,19.261-53.389c.016-.077.03-.155.046-.233a203.357,203.357,0,0,0,3.863-53.429c-.227-3.795-.574-7.57-1.012-11.327l-.026-.223a202.19,202.19,0,0,0-30.336-85.126,1.34,1.34,0,0,0-.324-.508,202.749,202.749,0,0,0-70.4-66.753,1.326,1.326,0,0,0-.475-.275,202.2,202.2,0,0,0-65.728-23.335l-.137-.023a202.579,202.579,0,0,0-70.522.507l-.254.045a202.5,202.5,0,0,0-36.741,10.46l-.172.069a201.591,201.591,0,0,0-26.219,12.491c-.1.056-.2.11-.3.167a201.266,201.266,0,0,0-22.293,14.771c-40.7-37.644-76.672-69.085-104.065-90.96-10.858-8.67-43.915-35.047-53.248-33.391a3.511,3.511,0,0,0-2.652,1.873c-9.773,19.16,21.362,51.92,77.882,111.39,13.51,14.216,28.8,30.306,44.978,47.776-62.912,80.484-55.9,195.428,16.518,267.847A202.55,202.55,0,0,0,391.1,536.24a7.9,7.9,0,0,0,2.234.431h.021a1.335,1.335,0,0,0,1.327-1.343,1.314,1.314,0,0,0-.19-.669A201.924,201.924,0,0,0,423.2,517.927l.009-.005.006-.005q2.6-1.814,5.147-3.723c13.864,12.795,26.78,24.937,38.2,35.67,54.293,51.039,86.487,81.306,112.276,81.306a31.117,31.117,0,0,0,7.842-.989,3.057,3.057,0,0,0,2.237-2.168C590.487,622.668,579.756,605.363,557.017,576.579Zm-91.276-102.8q-.673.869-1.375,1.754c-1.4,1.768-2.889,3.577-4.437,5.4h0l-.036.041c-3.567,4.2-7.3,8.248-11.1,12.044q-1.272,1.273-2.563,2.515h0c-.68-.622-1.372-1.258-2.059-1.889l-1.063-.975q-1.343-1.234-2.707-2.491l-1.158-1.066c-.889-.82-1.787-1.65-2.686-2.483l-1.237-1.145q-1.361-1.261-2.743-2.545l-1.221-1.133-2.77-2.578-1.3-1.209-2.709-2.531-1.412-1.32c-.9-.844-1.812-1.7-2.723-2.554l-1.445-1.355c-.9-.843-1.8-1.7-2.71-2.549-.51-.481-1.019-.958-1.532-1.442-.888-.836-1.782-1.681-2.677-2.526l-1.611-1.521c-.907-.856-1.821-1.723-2.735-2.588l-1.6-1.512-2.706-2.569-1.711-1.625q-1.328-1.263-2.667-2.54c-.591-.564-1.18-1.124-1.774-1.69l-2.68-2.559c-.607-.581-1.211-1.157-1.821-1.741l-2.685-2.571-1.859-1.78-2.648-2.544-1.955-1.878-2.585-2.488L379,432.154l-2.483-2.4-2.217-2.14-2.505-2.424-2.183-2.113-2.638-2.559c-.71-.689-1.417-1.374-2.129-2.066-.859-.834-1.722-1.675-2.584-2.513-.739-.718-1.476-1.434-2.218-2.157l-2.549-2.484-2.284-2.227-2.453-2.4-2.434-2.379c-.777-.759-1.557-1.525-2.335-2.287-.852-.834-1.7-1.665-2.555-2.5l-2.522-2.476-2.4-2.352c-.907-.89-1.818-1.787-2.726-2.682l-2.22-2.184-2.8-2.761c-.732-.722-1.462-1.44-2.2-2.166q-1.33-1.312-2.667-2.634l-2.353-2.326-2.907-2.879-2.112-2.091-3.139-3.117-1.927-1.912-3.007-2.991-2.081-2.07q-5.088-5.064-10.211-10.188-2.455-2.455-4.9-4.9l-2.079-2.085q-1.412-1.417-2.824-2.833l-1.432-1.44q-1.727-1.734-3.449-3.466l-1.547-1.559-3.257-3.281-1.981-2q-1.426-1.44-2.851-2.878l-1.841-1.862-2.914-2.948-1.889-1.915-2.891-2.931c-.526-.533-1.047-1.064-1.571-1.6l-3.132-3.181-1.707-1.737-2.967-3.021-1.649-1.682-3.021-3.081-1.368-1.4q-1.627-1.662-3.247-3.321l-1.244-1.275q-1.671-1.713-3.336-3.419l-1.192-1.224q-1.657-1.7-3.307-3.4l-1.355-1.4-3.135-3.228-1.214-1.253-3.24-3.343-1.133-1.172q-1.623-1.678-3.236-3.348l-1.305-1.353q-1.506-1.562-3-3.117l-1.44-1.5q-1.43-1.486-2.854-2.968l-1.368-1.426q-1.449-1.509-2.888-3.009l-1.209-1.263-3-3.139c-.372-.389-.739-.774-1.11-1.162q-1.5-1.575-3-3.141l-1.186-1.245q-1.451-1.524-2.892-3.04c-.4-.418-.791-.832-1.187-1.25q-1.408-1.482-2.806-2.956l-1.295-1.368-2.636-2.785-1.327-1.406-2.592-2.747c-.411-.436-.817-.869-1.226-1.3l-2.584-2.747-1.3-1.386c-.823-.877-1.646-1.754-2.459-2.622l-1.322-1.414c-.786-.841-1.573-1.683-2.351-2.516l-1.407-1.509c-.739-.793-1.479-1.587-2.209-2.373-.483-.519-.96-1.033-1.439-1.548l-2.109-2.273-1.441-1.558c-.685-.74-1.369-1.48-2.045-2.213l-1.446-1.569L163.34,213h0c.894-.928,1.8-1.848,2.692-2.745,3.481-3.48,7.193-6.907,11.035-10.215,4.759,8.673,30.933,54.206,83.427,107.345,26.584,26.912,66.472,56.717,98.521,80.667,13.451,10.052,25.812,17.98,36.719,24.977,9.314,5.974,17.359,11.135,24.091,16.325,21,16.186,39.966,19.547,52.1,19.547a56.9,56.9,0,0,0,10.759-.967A198.557,198.557,0,0,1,465.742,473.78Zm-4.768,10.026c52.691,57.664,57.155,68.5,57.287,70.451-1.948-.131-12.736-4.573-70.06-56.927.832-.8,1.666-1.6,2.486-2.424C454.2,491.395,457.649,487.661,460.974,483.806ZM161.532,211.03c-56.128-61.144-60.813-72.44-60.945-74.446,2.013.132,13.36,4.844,74.858,61.324-3.935,3.384-7.737,6.892-11.3,10.456C163.274,209.235,162.4,210.129,161.532,211.03Zm245.639-32.682A199.986,199.986,0,0,1,475.595,243.5a.876.876,0,0,1-.676.608c-8.578,2.125-53.624-40.353-62.427-52.252C406.656,183.964,406.694,179.966,407.171,178.348ZM404.794,177c-.941,2.259-1.272,7.223,5.55,16.445,3.953,5.343,17.123,18.976,31.509,31.684,16.315,14.412,27.263,21.7,32.593,21.7a4.6,4.6,0,0,0,1.11-.125,3.574,3.574,0,0,0,1.563-.817,199.529,199.529,0,0,1,28.543,79.712C483.9,312.521,473.4,303.333,461.3,292.751c-5.172-4.523-10.52-9.2-17.085-14.452-22.751-18.2-59.7-57.723-74-77.311-14.048-19.25-25.494-38.576-27.482-46.16A199.509,199.509,0,0,1,404.794,177Zm-85.22-24.936a200.17,200.17,0,0,1,20.328,2.29c1.519,8.406,15,30.19,28.156,48.213,14.389,19.718,51.584,59.5,74.485,77.821,6.519,5.216,11.844,9.874,16.994,14.378,12,10.494,23.344,20.413,46.526,34.18.4,3.533.723,7.082.936,10.65a200.676,200.676,0,0,1-3.615,51.745c-6.22-.374-21.784-3.553-50.308-22.242-27.719-18.161-58.338-48.023-87.324-77.055-30.956-31.005-52.367-57.252-61.921-75.9-3.067-5.986-7.2-13.359-11.582-21.164-8.793-15.671-18.687-33.307-19.96-40.173A200.719,200.719,0,0,1,319.574,152.06ZM232.7,166.143c-.023,5.6.883,21.382,10.828,36.006,45.363,66.708,58.36,91.4,58.893,95.143.167,1.171.184,2.652-.686,3.059-2.5,1.169-11.642-3.533-22.348-15.388-2.078-2.3-5.1-5.309-8.931-9.114-19.63-19.51-60.322-59.96-61.279-98.393A198.948,198.948,0,0,1,232.7,166.143ZM185.46,193.166a198.452,198.452,0,0,1,21.094-14.205c1.929,39.06,42.379,79.266,62.015,98.782,3.8,3.776,6.8,6.76,8.832,9.008,7.567,8.38,17.542,16.437,23.412,16.437a4.793,4.793,0,0,0,2.051-.418c1.3-.608,2.731-2.117,2.2-5.855-1.614-11.292-56.974-92.8-59.331-96.269-10.183-14.975-10.434-31.7-10.341-35.565a199.692,199.692,0,0,1,34.285-9.806c1.457,7.516,10.995,24.518,20.245,41,4.366,7.783,8.491,15.133,11.535,21.074,9.678,18.9,31.258,45.375,62.407,76.573,29.084,29.13,59.817,59.1,87.749,77.4,10,6.55,34.516,21.526,51.226,22.653a199.447,199.447,0,0,1-18.476,50.827,55.713,55.713,0,0,1-18.3,1.084c-10.541-.952-26.837-4.962-44.6-18.657-6.825-5.26-14.914-10.449-24.281-16.457-10.868-6.972-23.186-14.874-36.561-24.867-31.978-23.9-71.776-53.637-98.219-80.4-53.42-54.076-79.417-100.172-83.253-107.242,1.533-1.288,3.06-2.536,4.562-3.724Q184.588,193.84,185.46,193.166ZM307.524,551.647A200.136,200.136,0,0,1,110.483,316.66c3.361,15.737,14.479,56.177,45.325,92.994,39.277,46.88,132.037,121.475,181.584,139.746A200.122,200.122,0,0,1,307.524,551.647Zm32.9-2.725a1.331,1.331,0,0,0-.848-1.565c-.836-.3-1.69-.614-2.553-.944-49.485-18.928-140.433-92.239-179.171-138.474-34.467-41.138-43.987-86.832-45.685-96.547-.183-1.048-.274-1.673-.3-1.833a198.581,198.581,0,0,1,10.769-34.514c3.734,9.942,17.288,41.724,50.423,80.981,38.511,45.626,97.4,104.355,110.54,110.247,4.628,2.074,20.319,13.021,38.487,25.7,30.625,21.365,54.286,37.632,65.566,42.889A198.656,198.656,0,0,1,340.427,548.922Zm50.79-15.666.4.389c-.222-.072-.455-.152-.7-.246-10.41-3.937-42.939-26.63-67.292-43.62-18.279-12.752-34.064-23.765-38.923-25.944-5.678-2.544-22.589-17.429-44.136-38.844-22.839-22.7-46.7-48.465-65.455-70.688-20.692-24.514-33.471-45.852-40.549-59.436a184.679,184.679,0,0,1-9.651-21.374c-.354-.967-.591-1.663-.724-2.063a198.589,198.589,0,0,1,12.976-24.691c4.142,9.48,21.849,45.625,67.4,89,18.468,17.589,38.257,37.413,57.395,56.585,35.366,35.428,68.77,68.892,83.291,77.27,8.555,4.936,21.579,14.011,34.175,22.787,22.316,15.55,33.716,23.13,39.448,25.281A199.186,199.186,0,0,1,391.216,533.256Zm30.508-17.56a1.812,1.812,0,0,1-.5-.017c-4.622-.648-25.124-14.928-40.278-25.488-12.641-8.808-25.714-17.917-34.366-22.909-14.216-8.2-47.5-41.544-82.736-76.844-19.149-19.184-38.95-39.021-57.443-56.632-39.461-37.583-60.122-72.26-66.665-87.729-.317-.748-.594-1.441-.844-2.1q4.9-7.642,10.57-14.941c11.827,12.8,23.884,26.164,36.629,40.293,29.791,33.023,60.594,67.17,95.656,102.232,56.644,56.643,102.98,102.322,144.63,140.791Q424.068,514.065,421.725,515.7ZM586.353,627.259a.4.4,0,0,1-.344.336c-25.744,6.675-58.385-23.992-117.619-79.677-11.324-10.646-24.125-22.678-37.863-35.361l-1-.921-.167-.154-.829-.766c-41.709-38.506-88.124-84.261-144.9-141.041-18.662-18.662-36.114-37.067-52.858-55.186-10.755-11.639-21.222-23.161-31.517-34.552q-5.623-6.223-11.187-12.395c-13.133-14.558-25.537-28.308-37.715-41.468-.357-.385-.706-.759-1.061-1.144-16.082-17.36-31.275-33.35-44.709-47.486C50.735,120.783,18.232,86.584,27.146,69.107a.88.88,0,0,1,.74-.456,3.293,3.293,0,0,1,.6-.05c9.681,0,55.345,32.107,154.1,123.421l-.223.179q-1.105.871-2.225,1.778c-.125.1-.251.206-.376.308q-.972.793-1.953,1.612c-.105.089-.21.172-.315.261C104.291,128.912,100.31,132.9,98.6,134.6s-5.658,5.678,61.078,78.362h0l.844.919c36.1,39.285,85.024,89.958,137.752,142.686,15.439,15.439,30.666,30.518,45.47,45.032q7.094,6.954,14.05,13.729,3.042,2.962,6.054,5.888c30.122,29.246,57.947,55.59,81.5,77.131l.921.842h0c68.462,62.541,72.181,58.839,73.967,57.051s5.52-5.515-57.518-74.478c.084-.1.164-.2.248-.3q.825-.985,1.623-1.961l.33-.4q.911-1.121,1.781-2.223c.056-.071.118-.146.174-.218,35.28,38.291,66.512,74.322,88.04,101.576C585.923,617.48,586.818,625.681,586.353,627.259Z" transform="translate(-22.988 -65.946)"/><path d="M368.024,336.6c6.474,8.479,15.34,20.09,24.479,23.136a16.3,16.3,0,0,0,5.024.974,4.813,4.813,0,0,0,4.106-1.727c2.754-3.664-1.4-11.3-5.37-17.069-7.8-11.322-18.931-20.4-27.7-22.6-3.146-.788-6.012.03-7.305,2.081-.9,1.423-1.747,4.608,2.66,9.941C365.116,332.793,366.529,334.643,368.024,336.6Zm-4.51-13.778a3.112,3.112,0,0,1,2.721-1.13,6.979,6.979,0,0,1,1.677.216c6.813,1.7,17.54,9.018,26.151,21.52,5.618,8.158,6.439,12.613,5.435,13.949-.718.954-2.961.889-6.15-.174-8.36-2.786-16.938-14.021-23.2-22.223-1.512-1.98-2.939-3.849-4.173-5.342C363.575,326.734,362.656,324.186,363.515,322.823Z" transform="translate(-67.638 -99.422)"/><path d="M507.984,390.643c1.513,1.154,3.1,2.515,4.772,3.954,6.116,5.255,13.047,11.21,21.915,12.1a21.207,21.207,0,0,0,2.133.114c3.511,0,5.849-1.045,6.96-3.119,2.292-4.274-1.828-10.781-5.687-15.489-6.4-7.8-14.823-11.087-21.593-13.727-2.109-.823-4.1-1.6-5.781-2.421-11.1-5.428-15.043-3.965-16.391-1.778C491.854,374.257,497.476,382.63,507.984,390.643Zm-11.4-18.96c.242-.391.9-.714,2.13-.714,1.957,0,5.358.819,10.817,3.488,1.779.869,3.821,1.666,5.984,2.51,6.479,2.527,14.544,5.672,20.5,12.933,5.4,6.589,6.332,10.794,5.4,12.533-.743,1.384-3.04,1.952-6.471,1.61-8.032-.81-14.625-6.475-20.443-11.472-1.706-1.466-3.317-2.85-4.893-4.052C499.215,380.6,495.368,373.651,496.582,371.683Z" transform="translate(-85.258 -105.942)"/><path d="M623.725,652.988a1.336,1.336,0,0,0-2.47,1.02,75.305,75.305,0,0,1,4.025,14.488,1.335,1.335,0,0,0,1.315,1.117,1.357,1.357,0,0,0,.22-.018,1.335,1.335,0,0,0,1.1-1.537A76.7,76.7,0,0,0,623.725,652.988Z" transform="translate(-102.112 -143.489)"/><path d="M633.643,662.236a1.334,1.334,0,0,0-.217,1.875c.06.076,6.029,7.684,12.165,21.8a1.336,1.336,0,0,0,2.45-1.065c-6.29-14.465-12.271-22.075-12.523-22.392A1.335,1.335,0,0,0,633.643,662.236Z" transform="translate(-103.697 -144.783)"/><path d="M112.528,169.221a1.335,1.335,0,1,0-2.447,1.071c.279.635,6.924,15.661,16.75,24.631a1.335,1.335,0,1,0,1.8-1.971C119.23,184.368,112.594,169.371,112.528,169.221Z" transform="translate(-34.494 -79.501)"/></g></g><g transform="translate(1.361 13.699)"><g transform="translate(61.164 -37.853)"><path class="s" d="M176.1,20.444c0,3.863.6,7.7-.125,11.35a58.139,58.139,0,0,1-3.307,10.914A58.854,58.854,0,0,1,167.6,52.966c-2.111,3.154-5.444,5.36-8.118,8.034s-4.85,6.052-8,8.162c-3.129,2.095-6.883,3.292-10.4,4.752a57.394,57.394,0,0,1-10.938,2.875,57.371,57.371,0,0,1-11.209,1.283c-3.862,0-7.829.8-11.479.082a58.842,58.842,0,0,1-10.9-3.676A59.1,59.1,0,0,1,86.4,69.119a59.2,59.2,0,0,1-8.54-7.611A58.333,58.333,0,0,1,70.949,52.5a57.176,57.176,0,0,1-4.965-10.127,56.257,56.257,0,0,1-3.018-10.8c-.722-3.65-1.8-7.271-1.8-11.133S62.373,12.987,63.1,9.337c.744-3.761.6-7.716,2.03-11.177,1.461-3.522,4.075-6.41,6.17-9.539,2.112-3.154,4-6.461,6.672-9.135s5.255-5.646,8.408-7.757C89.5-30.366,93.475-31.038,97-32.5c3.46-1.435,6.81-3.411,10.57-4.156a58.888,58.888,0,0,1,11.359-1.2c3.862,0,7.485,1.606,11.135,2.327,3.761.744,7.585.984,11.046,2.42,3.521,1.46,6.357,4.057,9.486,6.153,3.154,2.111,6.789,3.594,9.462,6.267s4.617,6,6.729,9.154c2.095,3.129,4.511,6.158,5.972,9.679,1.435,3.461,1.676,7.345,2.42,11.106A57.159,57.159,0,0,1,176.1,20.444Z" transform="translate(-61.164 37.853)"/><path class="t" d="M176.1,20.444c0,3.863.6,7.7-.125,11.35a58.139,58.139,0,0,1-3.307,10.914A58.854,58.854,0,0,1,167.6,52.966c-2.111,3.154-5.444,5.36-8.118,8.034s-4.85,6.052-8,8.162c-3.129,2.095-6.883,3.292-10.4,4.752a57.394,57.394,0,0,1-10.938,2.875,57.371,57.371,0,0,1-11.209,1.283c-3.862,0-7.829.8-11.479.082a58.842,58.842,0,0,1-10.9-3.676A59.1,59.1,0,0,1,86.4,69.119a59.2,59.2,0,0,1-8.54-7.611A58.333,58.333,0,0,1,70.949,52.5a57.176,57.176,0,0,1-4.965-10.127,56.257,56.257,0,0,1-3.018-10.8c-.722-3.65-1.8-7.271-1.8-11.133S62.373,12.987,63.1,9.337c.744-3.761.6-7.716,2.03-11.177,1.461-3.522,4.075-6.41,6.17-9.539,2.112-3.154,4-6.461,6.672-9.135s5.255-5.646,8.408-7.757C89.5-30.366,93.475-31.038,97-32.5c3.46-1.435,6.81-3.411,10.57-4.156a58.888,58.888,0,0,1,11.359-1.2c3.862,0,7.485,1.606,11.135,2.327,3.761.744,7.585.984,11.046,2.42,3.521,1.46,6.357,4.057,9.486,6.153,3.154,2.111,6.789,3.594,9.462,6.267s4.617,6,6.729,9.154c2.095,3.129,4.511,6.158,5.972,9.679,1.435,3.461,1.676,7.345,2.42,11.106A57.159,57.159,0,0,1,176.1,20.444Z" transform="translate(-61.164 37.853)"/></g><path class="u" d="M126.649-28.808a254.383,254.383,0,0,1-25.7,3.414c-9.7.86-18.512,8.179-22.493,17.693-2.249,5.373-6.7,7.7-8.03,9.416-3.414,4.418-2.611,26.105-3.614,27.511" transform="translate(-0.009 -0.014)"/><path class="u" d="M74.049,39.274a144.47,144.47,0,0,0,0-24.9C73.464,7.642,80.858,3.175,84.1-3.419c2.953-6.013,10.328-10.693,14.251-11.724,7.63-2.009,26.306-7.431,26.306-7.431" transform="translate(-0.02 -0.023)"/><path class="u" d="M79.881,30.853S78.475,15.591,83.294,8.362C86.251,3.928,92.2-.246,98.427-2.454c4.408-1.565,6.447-5.647,8.362-7.055,3.373-2.482,9.175-1.744,17.143-4.179,7.911-2.417,20.783-1.808,24.022,2.371" transform="translate(-0.028 -0.035)"/><path class="u" d="M89.934,26.9s-3.919,2.8-.947,12.451c1.189,3.858,2.55,8.642,6.324,13.654,4.34,5.764,7.642,11.133,11.823,11.718,6.7.938,9.94,3.586,13.925,2.74,3.261-.691,8.516-4.075,14.03-4.338,5.938-.285,10.635-3,12.878-2.087" transform="translate(-0.041 -0.099)"/><path class="u" d="M106.813,7.818c-.461.218-5.336,1.524-7.449,10.712-1.131,4.918-4.232,9.834-4.042,14.968.212,5.717,2.029,12.664,7.3,14.9,5.35,2.27,11.012,6.816,17.238,6.183,5.774-.587,12.673-.53,18.17-2.722,5.138-2.049,11.576-1.232,14.562.313" transform="translate(-0.052 -0.07)"/><path class="u" d="M133.361-6.485c3.617.59,6.827-.9,11.277,1.89C147-3.109,149.565-2.216,151.032.242c3.414,5.723-4.218,11.948-8.835,10.341s-12.542.7-17.47-2.788C118.88,3.657,122.637-8.234,133.361-6.485Z" transform="translate(-0.093 -0.048)"/><path class="u" d="M160.729-6.545s2.611,11.707,7.229,16.326.4,19.88,1.807,24.5-5.02,10.442-6.024,10.843" transform="translate(-0.152 -0.048)"/><path class="u" d="M111.447,13.828s-8.233,9.438-4.82,18.273,5.623,15.061,10.241,13.053,19.077-2.41,23.293-1.406" transform="translate(-0.068 -0.079)"/><path class="u" d="M120.908,22.474s-3.615,8.233,4.217,9.036,27.309-1.607,31.527,2.409,6.627-6.285,4.82-12.982" transform="translate(-0.09 -0.09)"/><path class="u" d="M132.685,17.252s.15,6.251,8.41,7.177,6.178-3.82,10-4.514,7.409-6.251,5.9-7.641" transform="translate(-0.109 -0.077)"/><path class="u" d="M79.688,39.368c.516-1.258,2.783.247,3.6,1.723.336.606-.316,1.613-.192,2.944.179,1.916.967,4.1.192,3.378-.573-.539-2.607-.049-3.6-.894C78.4,45.429,78.306,42.745,79.688,39.368Z" transform="translate(-0.027 -0.117)"/><path class="u" d="M82.477,53.753c-.2-.724,1.156-1.5,2.553-.064.563.577,1.522.658,2.043,1.059,1.478,1.138,1.478,5.242,0,4.585A9.062,9.062,0,0,1,82.477,53.753Z" transform="translate(-0.033 -0.139)"/><path class="u" d="M138.551-1.817A7.306,7.306,0,0,1,142.885-.7c1.306.831,4.451,3.519,3.264,3.756s-4.868.939-6.411-.9S136.424-1.542,138.551-1.817Z" transform="translate(-0.117 -0.055)"/><path class="u" d="M137.837-26.852c.854-.14,2.44,2.018,4.358,2.157s6.338,4.312,4.3,4.174-8.225.347-9.532-1.6S134.872-26.365,137.837-26.852Z" transform="translate(-0.114 -0.017)"/></g><g transform="translate(-13.291 49.764)"><g transform="translate(1.197 18.186)"><path class="v" d="M295.476,65.828C298.518,84,306.988,88.5,338.882,89.619c15.672.549,40.95-4.934,49.959-10.926,12.107-8.052,18.507-19.363,17.491-29.876C404.411,28.944,380.539,17.285,349,22.154c-7.808,1.2-18.729,12.3-24.4,16.819-4.782,3.811-13.132,6.66-17.339,9.685C296.308,56.535,293.823,55.952,295.476,65.828Z"/><path class="w" d="M295.476,65.828C298.518,84,306.988,88.5,338.882,89.619c15.672.549,40.95-4.934,49.959-10.926,12.107-8.052,18.507-19.363,17.491-29.876C404.411,28.944,380.539,17.285,349,22.154c-7.808,1.2-18.729,12.3-24.4,16.819-4.782,3.811-13.132,6.66-17.339,9.685C296.308,56.535,293.823,55.952,295.476,65.828Z"/></g><g transform="translate(1.197 18.186)"><path class="x" d="M367.07,62.391c.617,3.687,6.752,5.569,13.186,4.576,4.153-.641,7.446-2.366,9.194-4.559a4.148,4.148,0,0,0,.889-3.608c-.618-3.688-5.9-6.287-12.335-5.294-2.413.372-3.3,2.58-5.034,3.587C370.072,58.771,366.684,60.087,367.07,62.391Z"/><path class="y" d="M367.07,62.391c.617,3.687,6.752,5.569,13.186,4.576,4.153-.641,7.446-2.366,9.194-4.559a4.148,4.148,0,0,0,.889-3.608c-.618-3.688-5.9-6.287-12.335-5.294-2.413.372-3.3,2.58-5.034,3.587C370.072,58.771,366.684,60.087,367.07,62.391Z"/></g><g transform="translate(1.197 18.186)"><path class="x" d="M311.823,61.275c.181,1.081,1.71,1.7,3.472,2.052a12.4,12.4,0,0,0,4.29.033c3.84-.593,6.436-2.385,6.127-4.229a3.174,3.174,0,0,0-2.738-2.454c-1.263-.27-2.8.2-4.438.452C314.7,57.722,311.515,59.432,311.823,61.275Z"/><path class="y" d="M311.823,61.275c.181,1.081,1.71,1.7,3.472,2.052a12.4,12.4,0,0,0,4.29.033c3.84-.593,6.436-2.385,6.127-4.229a3.174,3.174,0,0,0-2.738-2.454c-1.263-.27-2.8.2-4.438.452C314.7,57.722,311.515,59.432,311.823,61.275Z"/></g><path class="u" d="M325.065,70.65a9.629,9.629,0,0,0,0,4.643" transform="translate(1.197 18.186)"/><path class="u" d="M330.472,74.82s.412,2.6,1.512,3.7" transform="translate(1.197 18.186)"/><path class="u" d="M347.041,29.918a6.685,6.685,0,0,0-2.613,2.337" transform="translate(1.197 18.186)"/><g transform="translate(1.197 18.186)"><path class="x" d="M382.223,44.1c.309,1.843,3.922,2.677,7.762,2.084a11.411,11.411,0,0,0,4.7-1.714c1.157-.8,1.585-1.592,1.431-2.514-.309-1.844-3.414-3.1-7.254-2.513A12.136,12.136,0,0,0,385.417,41C383.557,41.9,382.024,42.906,382.223,44.1Z"/><path class="y" d="M382.223,44.1c.309,1.843,3.922,2.677,7.762,2.084a11.411,11.411,0,0,0,4.7-1.714c1.157-.8,1.585-1.592,1.431-2.514-.309-1.844-3.414-3.1-7.254-2.513A12.136,12.136,0,0,0,385.417,41C383.557,41.9,382.024,42.906,382.223,44.1Z"/></g></g><g transform="translate(-1470.708 -585.021)"><g transform="translate(1458.286 774.702)"><path class="z" d="M1495.63,794.872c0,3.467.145,6.9-1.475,9.7a21.1,21.1,0,0,1-16.808,10.126c-3.467,0-6.442-2.2-9.242-3.821-2.888-1.671-6.316-3.173-7.987-6.061-1.62-2.8-1.832-6.481-1.832-9.948a21.565,21.565,0,0,1,9.662-16.28c2.8-1.62,5.931-3.89,9.4-3.89a21.721,21.721,0,0,1,17.178,10.252C1496.146,787.753,1495.63,791.4,1495.63,794.872Z" transform="translate(-1458.286 -774.702)"/><path class="y" d="M1495.63,794.872c0,3.467.145,6.9-1.475,9.7a21.1,21.1,0,0,1-16.808,10.126c-3.467,0-6.442-2.2-9.242-3.821-2.888-1.671-6.316-3.173-7.987-6.061-1.62-2.8-1.832-6.481-1.832-9.948a21.565,21.565,0,0,1,9.662-16.28c2.8-1.62,5.931-3.89,9.4-3.89a21.721,21.721,0,0,1,17.178,10.252C1496.146,787.753,1495.63,791.4,1495.63,794.872Z" transform="translate(-1458.286 -774.702)"/></g><path class="aa" d="M1646.314,863.669s-1.493,3.583-3.673,4.05" transform="translate(-158.368 -75.872)"/><path class="aa" d="M1647.228,899.893s-.942,2.125-1.309,2.248" transform="translate(-157.403 -105.021)"/><path class="aa" d="M1512.3,860s-.244,2.688.733,3.543" transform="translate(-45.286 -71.552)"/><path class="aa" d="M1529.123,941.822s2.322-.6,1.955-1.036" transform="translate(-59.424 -139.326)"/></g><g class="ab" transform="translate(62.803 173.702) rotate(180)"><path class="af" d="M 10.11451053619385 32.88524627685547 L 7.125861167907715 32.71608734130859 C 7.095020771026611 29.50966644287109 6.655910968780518 27.4309253692627 5.657600879669189 25.76528549194336 C 4.519250869750977 23.86598587036133 2.548940896987915 22.42204666137695 -0.5430690050125122 21.22113609313965 L -0.129259005188942 18.32847595214844 C 2.26465106010437 18.12141609191895 3.803700923919678 16.87383651733398 5.016921043395996 14.15689659118652 C 6.269461154937744 11.35189628601074 7.152201175689697 7.067756175994873 7.968571186065674 -0.1681737303733826 L 10.95739078521729 -0.07176373898983002 C 11.2662410736084 6.376466274261475 12.10184097290039 10.93226623535156 13.51192092895508 13.85599613189697 C 14.12783145904541 15.13304615020752 14.85514068603516 16.11675643920898 15.73541069030762 16.86332702636719 C 16.52709007263184 17.53476715087891 17.47170066833496 18.0340461730957 18.62320137023926 18.38969612121582 L 18.20687103271484 21.32266616821289 C 17.7708911895752 21.3303165435791 16.01741027832031 21.90474700927734 14.2254114151001 23.68645668029785 C 12.6777811050415 25.22519683837891 10.70830059051514 28.07015609741211 10.11451053619385 32.88524627685547 Z"/><path class="ag" d="M 9.459111213684082 -3.814697265625e-06 C 7.939881324768066 13.46573638916016 5.937931060791016 19.30929565429688 1.9073486328125e-06 19.82289505004883 C 7.075800895690918 22.57107543945312 8.566830635070801 26.57181549072266 8.625790596008301 32.70165634155273 C 9.826601028442383 22.96413612365723 16.35211181640625 19.85499572753906 18.18054008483887 19.82289505004883 C 13.09430122375488 18.25195693969727 10.12140083312988 13.82735633850098 9.459111213684082 -3.814697265625e-06 M 9.45767879486084 -3.000026702880859 C 9.490288734436035 -3.000026702880859 9.523005485534668 -2.999500274658203 9.555821418762207 -2.998443603515625 C 11.11878108978271 -2.948032379150391 12.38086128234863 -1.70550537109375 12.4556713104248 -0.1435356140136719 C 12.75470161437988 6.099525451660156 13.54214096069336 10.46566581726074 14.86299133300781 13.20438575744629 C 15.85079097747803 15.25251579284668 17.06844139099121 16.33957672119141 19.06586074829102 16.95650672912598 C 20.47421073913574 17.39148712158203 21.3579216003418 18.78514671325684 21.15077018737793 20.24451637268066 C 20.94697380065918 21.68018341064453 19.74674987792969 22.76098251342773 18.3046875 22.82033920288086 C 17.96061897277832 22.8845329284668 16.55719566345215 23.39536476135254 15.06120109558105 24.97764587402344 C 13.77054119110107 26.3427562713623 12.12292098999023 28.85461616516113 11.60324096679688 33.06882476806641 C 11.41693878173828 34.57958602905273 10.13238906860352 35.70172882080078 8.628022193908691 35.70172882080078 C 8.57103443145752 35.70172882080078 8.513832092285156 35.70012283325195 8.456260681152344 35.69686508178711 C 6.878920555114746 35.60758590698242 5.641120910644531 34.31030654907227 5.625930786132812 32.73050689697266 C 5.597830772399902 29.80959701538086 5.222531318664551 27.95716667175293 4.371001243591309 26.53642654418945 C 3.412961006164551 24.93796539306641 1.678920745849609 23.69329643249512 -1.086128234863281 22.61937713623047 C -2.386688232421875 22.11425590515137 -3.167339324951172 20.77920532226562 -2.969768524169922 19.39805603027344 C -2.772188186645508 18.01691627502441 -1.648538589477539 16.95428657531738 -0.2585182189941406 16.83405685424805 C 1.852531433105469 16.65145683288574 2.801071166992188 15.4402961730957 3.647271156311035 13.54529571533203 C 4.817530632019043 10.92454719543457 5.690570831298828 6.64329719543457 6.478020668029785 -0.336334228515625 C 6.649660110473633 -1.857616424560547 7.937135696411133 -3.000026702880859 9.45767879486084 -3.000026702880859 Z"/></g><g class="ac" transform="translate(81.643 191.644) rotate(180)"><path class="af" d="M 7.781218528747559 20.35043716430664 L 4.797098636627197 20.15054702758789 C 4.759848594665527 16.88852691650391 3.962658405303955 15.08074760437012 -0.4669215977191925 13.62983798980713 L -0.1091316044330597 10.70833778381348 C 2.674678325653076 10.50526714324951 4.211888313293457 8.821347236633301 5.418518543243408 -0.1988823860883713 L 8.402868270874023 -0.08506239205598831 C 8.906708717346191 8.785887718200684 11.27142810821533 10.13314723968506 13.65031814575195 10.75279808044434 L 13.29441833496094 13.70419788360596 C 12.99727821350098 13.71052742004395 11.79874801635742 14.04953765869141 10.56778812408447 15.08489799499512 C 9.51878833770752 15.96720790863037 8.183828353881836 17.59693717956543 7.781218528747559 20.35043716430664 Z"/><path class="ag" d="M 6.905278205871582 -1.9073486328125e-06 C 5.796268463134766 8.290437698364258 4.3348388671875 11.88814735412598 -1.9073486328125e-06 12.2043571472168 C 5.165528297424316 13.89632797241211 6.253908634185791 16.35945701599121 6.296998500823975 20.1334171295166 C 7.173588275909424 14.1383171081543 11.9373779296875 12.22411727905273 13.27221870422363 12.2043571472168 C 9.559078216552734 11.23716735839844 7.388798236846924 8.513077735900879 6.905278205871582 -1.9073486328125e-06 M 6.903715133666992 -3.000034332275391 C 6.942211627960205 -3.000034332275391 6.980844974517822 -2.999301910400391 7.019618511199951 -2.997821807861328 C 8.565279006958008 -2.938873291015625 9.812738418579102 -1.714412689208984 9.900447845458984 -0.1701221466064453 C 10.1032886505127 3.401058197021484 10.63534832000732 5.962347984313965 11.48186874389648 7.442587852478027 C 12.05988883972168 8.453337669372559 12.77387809753418 8.974447250366211 14.02841854095459 9.301227569580078 C 15.48097801208496 9.679587364196777 16.43034744262695 11.07327747344971 16.25063896179199 12.56351757049561 C 16.0746898651123 14.02264022827148 14.86927604675293 15.13455772399902 13.41020202636719 15.20120048522949 C 13.16678333282471 15.25079345703125 12.27194404602051 15.55342197418213 11.35308837890625 16.39062690734863 C 10.22243881225586 17.42079734802246 9.520048141479492 18.82608795166016 9.265438079833984 20.56745719909668 C 9.048761367797852 22.04930686950684 7.776699066162109 23.13350868225098 6.299403667449951 23.13350868225098 C 6.232090950012207 23.13350868225098 6.164573669433594 23.13126754760742 6.096488475799561 23.12670707702637 C 4.534148216247559 23.02205657958984 3.315068244934082 21.73340797424316 3.297198295593262 20.16766738891602 C 3.280158042907715 18.67561721801758 3.078838348388672 17.76595687866211 2.624038696289062 17.1259880065918 C 2.059768676757812 16.33199691772461 0.8959779739379883 15.65466690063477 -0.9338312149047852 15.05531692504883 C -2.295742034912109 14.60921764373779 -3.151962280273438 13.26216697692871 -2.977750778198242 11.83967781066895 C -2.803550720214844 10.41719722747803 -1.647571563720703 9.316567420959473 -0.21826171875 9.212307929992676 C 0.9019279479980469 9.130598068237305 1.443618774414062 8.760377883911133 2.011028289794922 7.688727378845215 C 3.006068229675293 5.809407234191895 3.560188293457031 2.379978179931641 3.931768417358398 -0.3977718353271484 C 4.131704330444336 -1.892433166503906 5.407596111297607 -3.000034332275391 6.903715133666992 -3.000034332275391 Z"/></g><g class="ad" transform="translate(245.075 69.5) rotate(180)"><path class="af" d="M 7.781218528747559 20.35043716430664 L 4.797098636627197 20.15054702758789 C 4.759848594665527 16.88852691650391 3.962658405303955 15.08074760437012 -0.4669215977191925 13.62983798980713 L -0.1091316044330597 10.70833778381348 C 2.674678325653076 10.50526714324951 4.211888313293457 8.821347236633301 5.418518543243408 -0.1988823860883713 L 8.402868270874023 -0.08506239205598831 C 8.906708717346191 8.785887718200684 11.27142810821533 10.13314723968506 13.65031814575195 10.75279808044434 L 13.29441833496094 13.70419788360596 C 12.99727821350098 13.71052742004395 11.79874801635742 14.04953765869141 10.56778812408447 15.08489799499512 C 9.51878833770752 15.96720790863037 8.183828353881836 17.59693717956543 7.781218528747559 20.35043716430664 Z"/><path class="ag" d="M 6.905278205871582 -1.9073486328125e-06 C 5.796268463134766 8.290437698364258 4.3348388671875 11.88814735412598 -1.9073486328125e-06 12.2043571472168 C 5.165528297424316 13.89632797241211 6.253908634185791 16.35945701599121 6.296998500823975 20.1334171295166 C 7.173588275909424 14.1383171081543 11.9373779296875 12.22411727905273 13.27221870422363 12.2043571472168 C 9.559078216552734 11.23716735839844 7.388798236846924 8.513077735900879 6.905278205871582 -1.9073486328125e-06 M 6.903715133666992 -3.000034332275391 C 6.942211627960205 -3.000034332275391 6.980844974517822 -2.999301910400391 7.019618511199951 -2.997821807861328 C 8.565279006958008 -2.938873291015625 9.812738418579102 -1.714412689208984 9.900447845458984 -0.1701221466064453 C 10.1032886505127 3.401058197021484 10.63534832000732 5.962347984313965 11.48186874389648 7.442587852478027 C 12.05988883972168 8.453337669372559 12.77387809753418 8.974447250366211 14.02841854095459 9.301227569580078 C 15.48097801208496 9.679587364196777 16.43034744262695 11.07327747344971 16.25063896179199 12.56351757049561 C 16.0746898651123 14.02264022827148 14.86927604675293 15.13455772399902 13.41020202636719 15.20120048522949 C 13.16678333282471 15.25079345703125 12.27194404602051 15.55342197418213 11.35308837890625 16.39062690734863 C 10.22243881225586 17.42079734802246 9.520048141479492 18.82608795166016 9.265438079833984 20.56745719909668 C 9.048761367797852 22.04930686950684 7.776699066162109 23.13350868225098 6.299403667449951 23.13350868225098 C 6.232090950012207 23.13350868225098 6.164573669433594 23.13126754760742 6.096488475799561 23.12670707702637 C 4.534148216247559 23.02205657958984 3.315068244934082 21.73340797424316 3.297198295593262 20.16766738891602 C 3.280158042907715 18.67561721801758 3.078838348388672 17.76595687866211 2.624038696289062 17.1259880065918 C 2.059768676757812 16.33199691772461 0.8959779739379883 15.65466690063477 -0.9338312149047852 15.05531692504883 C -2.295742034912109 14.60921764373779 -3.151962280273438 13.26216697692871 -2.977750778198242 11.83967781066895 C -2.803550720214844 10.41719722747803 -1.647571563720703 9.316567420959473 -0.21826171875 9.212307929992676 C 0.9019279479980469 9.130598068237305 1.443618774414062 8.760377883911133 2.011028289794922 7.688727378845215 C 3.006068229675293 5.809407234191895 3.560188293457031 2.379978179931641 3.931768417358398 -0.3977718353271484 C 4.131704330444336 -1.892433166503906 5.407596111297607 -3.000034332275391 6.903715133666992 -3.000034332275391 Z"/></g><g class="ae" transform="translate(338.272 249.814) rotate(180)"><path class="af" d="M 7.781218528747559 20.35043716430664 L 4.797098636627197 20.15054702758789 C 4.759848594665527 16.88852691650391 3.962658405303955 15.08074760437012 -0.4669215977191925 13.62983798980713 L -0.1091316044330597 10.70833778381348 C 2.674678325653076 10.50526714324951 4.211888313293457 8.821347236633301 5.418518543243408 -0.1988823860883713 L 8.402868270874023 -0.08506239205598831 C 8.906708717346191 8.785887718200684 11.27142810821533 10.13314723968506 13.65031814575195 10.75279808044434 L 13.29441833496094 13.70419788360596 C 12.99727821350098 13.71052742004395 11.79874801635742 14.04953765869141 10.56778812408447 15.08489799499512 C 9.51878833770752 15.96720790863037 8.183828353881836 17.59693717956543 7.781218528747559 20.35043716430664 Z"/><path class="ag" d="M 6.905278205871582 -1.9073486328125e-06 C 5.796268463134766 8.290437698364258 4.3348388671875 11.88814735412598 -1.9073486328125e-06 12.2043571472168 C 5.165528297424316 13.89632797241211 6.253908634185791 16.35945701599121 6.296998500823975 20.1334171295166 C 7.173588275909424 14.1383171081543 11.9373779296875 12.22411727905273 13.27221870422363 12.2043571472168 C 9.559078216552734 11.23716735839844 7.388798236846924 8.513077735900879 6.905278205871582 -1.9073486328125e-06 M 6.903715133666992 -3.000034332275391 C 6.942211627960205 -3.000034332275391 6.980844974517822 -2.999301910400391 7.019618511199951 -2.997821807861328 C 8.565279006958008 -2.938873291015625 9.812738418579102 -1.714412689208984 9.900447845458984 -0.1701221466064453 C 10.1032886505127 3.401058197021484 10.63534832000732 5.962347984313965 11.48186874389648 7.442587852478027 C 12.05988883972168 8.453337669372559 12.77387809753418 8.974447250366211 14.02841854095459 9.301227569580078 C 15.48097801208496 9.679587364196777 16.43034744262695 11.07327747344971 16.25063896179199 12.56351757049561 C 16.0746898651123 14.02264022827148 14.86927604675293 15.13455772399902 13.41020202636719 15.20120048522949 C 13.16678333282471 15.25079345703125 12.27194404602051 15.55342197418213 11.35308837890625 16.39062690734863 C 10.22243881225586 17.42079734802246 9.520048141479492 18.82608795166016 9.265438079833984 20.56745719909668 C 9.048761367797852 22.04930686950684 7.776699066162109 23.13350868225098 6.299403667449951 23.13350868225098 C 6.232090950012207 23.13350868225098 6.164573669433594 23.13126754760742 6.096488475799561 23.12670707702637 C 4.534148216247559 23.02205657958984 3.315068244934082 21.73340797424316 3.297198295593262 20.16766738891602 C 3.280158042907715 18.67561721801758 3.078838348388672 17.76595687866211 2.624038696289062 17.1259880065918 C 2.059768676757812 16.33199691772461 0.8959779739379883 15.65466690063477 -0.9338312149047852 15.05531692504883 C -2.295742034912109 14.60921764373779 -3.151962280273438 13.26216697692871 -2.977750778198242 11.83967781066895 C -2.803550720214844 10.41719722747803 -1.647571563720703 9.316567420959473 -0.21826171875 9.212307929992676 C 0.9019279479980469 9.130598068237305 1.443618774414062 8.760377883911133 2.011028289794922 7.688727378845215 C 3.006068229675293 5.809407234191895 3.560188293457031 2.379978179931641 3.931768417358398 -0.3977718353271484 C 4.131704330444336 -1.892433166503906 5.407596111297607 -3.000034332275391 6.903715133666992 -3.000034332275391 Z"/></g><path class="o" d="M234.232,186.37c.513-.075,2.3-.274,3,1.058s.233,2.731-1.232,2.8-2.631-.267-2.98-1.665A1.7,1.7,0,0,1,234.232,186.37Z" transform="translate(42.404 -166.835)"/><path class="o" d="M233.349,186.331c.161-.024.721-.086.94.332s.073.857-.387.878-.825-.084-.935-.522A.532.532,0,0,1,233.349,186.331Z" transform="translate(-101.437 -71.235)"/><path class="o" d="M234.015,186.36c.427-.062,1.911-.227,2.492.88s.194,2.271-1.025,2.326-2.188-.222-2.478-1.385A1.411,1.411,0,0,1,234.015,186.36Z" transform="translate(25.972 -35.092)"/><path class="o" d="M233.812,186.351c.346-.051,1.548-.184,2.019.713s.157,1.839-.83,1.884-1.772-.18-2.007-1.121A1.142,1.142,0,0,1,233.812,186.351Z" transform="translate(122.124 107.908)"/><path class="o" d="M233.831,186.352c.353-.052,1.582-.188,2.064.729s.16,1.88-.848,1.926-1.812-.184-2.052-1.146A1.168,1.168,0,0,1,233.831,186.352Z" transform="translate(-211.114 121.95)"/><path class="o" d="M233.357,186.331c.164-.024.736-.088.96.339s.075.875-.395.9-.843-.085-.955-.533A.543.543,0,0,1,233.357,186.331Z" transform="translate(-190.217 148.652)"/><path class="o" d="M233.478,186.337c.213-.031.952-.113,1.242.438s.1,1.131-.51,1.159-1.09-.111-1.235-.69A.7.7,0,0,1,233.478,186.337Z" transform="translate(-184.308 271.284)"/><path class="o" d="M233.425,186.334c.191-.028.857-.1,1.117.395s.087,1.018-.459,1.043-.981-.1-1.111-.621A.632.632,0,0,1,233.425,186.334Z" transform="translate(107.515 125.908)"/><path class="o" d="M233.831,186.352c.353-.052,1.582-.188,2.063.729s.16,1.88-.848,1.926-1.812-.184-2.052-1.146A1.168,1.168,0,0,1,233.831,186.352Z" transform="translate(-185.57 60.802)"/><path class="o" d="M234.232,186.37c.513-.075,2.3-.274,3,1.058s.233,2.731-1.232,2.8-2.631-.267-2.98-1.665A1.7,1.7,0,0,1,234.232,186.37Z" transform="translate(-185.57 -166.835)"/></g></svg>