<svg xmlns="http://www.w3.org/2000/svg" width="42.706" height="41.018" viewBox="0 0 42.706 41.018"><defs><style>.a{fill:#c179ff;}.a,.b,.c,.d{stroke:#000;}.a,.c{stroke-width:3px;}.b,.c,.d{fill:#fff;stroke-linecap:round;stroke-linejoin:bevel;}.b{stroke-width:3.001px;}.d{stroke-width:3.002px;}</style></defs><g transform="translate(1.446 1.429)"><path class="a" d="M960.427,534.194c2.451,2.452,3.014,5.163,4.019,9.5s-1.762,15.324-4.764,17.327-6.886,4.86-13.7,4.416-12.64-2.688-15.091-5.14-4.9-5.618-5.734-8.743c-.861-3.224.958-6.077,1.82-9.3.834-3.126,3.255-5.611,5.708-8.063a22.369,22.369,0,0,1,9.234-5.435c3.223-.861,5.84-1.91,9.064-1.05C954.107,528.54,957.975,531.742,960.427,534.194Z" transform="translate(-924.928 -527.388)"/><path class="b" d="M935.844,538.493a6.4,6.4,0,0,0,1.827-1.525" transform="translate(-924.928 -527.388)"/><path class="c" d="M932.79,542.762a1.5,1.5,0,0,0,1.069.371" transform="translate(-924.928 -527.388)"/><path class="d" d="M937.15,556.142a8.582,8.582,0,0,1,2.575.969" transform="translate(-924.928 -527.388)"/><path class="c" d="M956.584,540.722a5.4,5.4,0,0,0-1.421-1.62" transform="translate(-924.928 -527.388)"/></g></svg>